<svg id="Capa_1" enable-background="new 0 0 510 510" height="512" viewBox="0 0 510 510" width="512" xmlns="http://www.w3.org/2000/svg">
<g fill="gray">
<path d="m464.201 75c-4.632-43.084-28.973-75-59.201-75s-54.569 31.916-59.201 75h-31.599c-4.631-43.084-28.972-75-59.2-75s-54.569 31.916-59.201 75h-31.599c-4.631-43.084-28.971-75-59.2-75s-54.569 31.916-59.201 75h-45.799v435h510c0-16.691 0-419.406 0-435zm-59.201-45c12.008 0 25.217 18.453 28.958 45h-57.917c3.742-26.547 16.951-45 28.959-45zm-150 0c12.008 0 25.217 18.453 28.958 45h-57.917c3.742-26.547 16.951-45 28.959-45zm-150 0c12.008 0 25.217 18.453 28.958 45h-57.917c3.742-26.547 16.951-45 28.959-45zm375 450h-450v-240h450zm-450-270v-105h103.958c-3.741 26.547-16.95 45-28.958 45v30c30.229 0 54.569-31.916 59.2-75h119.758c-3.741 26.547-16.95 45-28.958 45v30c30.228 0 54.569-31.916 59.2-75h119.758c-3.741 26.547-16.95 45-28.958 45v30c30.228 0 54.569-31.916 59.201-75h15.799v105z"/><path d="m257.555 322.468 88.277 89.771 71.543-84.549 2.775 19.431 29.7-4.242-9.092-63.637-63.637-9.092-4.242 29.7 25.652 3.664-54.363 64.247-88.973-90.479-64.427 80.871 23.464 18.694z"/><path d="m60 360h90v30h-90z"/><path d="m60 300h90v30h-90z"/><path d="m60 420h90v30h-90z"/></g></svg>