             <svg  className="svg-container"  width="401" height="409" viewBox="-899 -351 1852 828" fill="none" xmlns="http://www.w3.org/2000/svg">
                    <g id="PetrolAnimation">
                    <g id="CenterItem">
                    <path id="XMLID 335" opacity="0.27" d="M309.9 180.3C306.6 174.1 301.1 169.8 294.9 167.8C270.8 160.2 264 147.1 271.6 123C273.6 116.7 273.2 109.7 269.8 103.4C263.2 90.9 247.7 86.1 235.2 92.7C232.8 93.9 230.8 95.5 229 97.3C210.9 115.4 178.1 115.4 160 97.3C152.3 89.6 140.1 87.4 130 92.7C119 98.5 113.9 111.3 117.4 122.8C124.8 147.2 117.7 160.4 93.3 167.8C91.8 168.3 90.3 168.9 88.8 169.6C76.3 176.2 71.5 191.7 78.1 204.2C81.4 210.5 86.9 214.8 93.2 216.7C117.7 224.3 125.2 238.6 117.6 263.1C115.7 269.4 116.1 276.4 119.4 282.6C126 295.1 141.5 299.9 154 293.3C156.4 292.1 158.4 290.5 160.2 288.7C178.3 270.6 211.1 270.6 229.2 288.7C236.9 296.4 249.1 298.6 259.2 293.3C270.4 287.4 275.4 274.4 271.6 262.7C263.7 238.3 270.8 224.4 295.2 216.5C296.6 216.1 297.9 215.5 299.2 214.8C311.7 208.3 316.5 192.8 309.9 180.3Z" fill="#808080"/>
                    <g id="XMLID 1998" opacity="0.5">
                    <path id="XMLID 2003" opacity="0.5" d="M255.2 270.9V147.3C255.2 144.4 250.3 142 246.5 141.1V126C246.5 122.8 243.9 120.2 240.7 120.2H159.1C155.9 120.2 153.3 122.8 153.3 126V141.2C149.5 142.1 144.6 144.5 144.6 147.4V206.3C141.9 206.9 138.2 209 136.9 214.4C136.2 217.3 136.9 221.2 137.7 226.4C139 234.4 140.8 245.4 139 259.6C137.8 268.9 132.6 271.9 128 271.5C122.2 271.1 116.1 265.5 116.4 255.9C116.7 244.8 121 234.8 125.5 224.3C130.9 211.8 129.9 198.1 129.8 181.1H130.8V178.3H129.2V177H125.9V178.3H124.3V181.1H125.3C125.4 197.2 126.6 210.4 121.3 222.5C116.6 233.4 112.1 243.8 111.8 255.8C111.5 268.1 119.7 275.4 127.6 276C127.9 276 128.3 276 128.6 276C131.9 276 135.6 274.8 138.5 271.7V281.4H260.9V270.8H255.2V270.9ZM143.7 260.1C145.6 245.3 143.7 233.9 142.3 225.6C141.5 221 140.9 217.4 141.4 215.3C142 212.6 143.5 211.4 144.7 210.9V270.8H139.6C141.6 268.4 143.1 264.9 143.7 260.1Z" fill="#808080"/>
                    <path id="XMLID 1999" opacity="0.5" d="M121.5 157.5L124.1 158C124.1 158 124.2 158 124.3 157.9V174.6H124.8V176.8H131.1V174.6H131.5C131.6 174.6 131.6 174.6 131.7 174.7C135.7 175.4 139.4 174.7 143.1 173.2C144.2 172.8 144.8 171.7 144.7 170.6C144 163.9 141.4 152.9 141.2 152.5V152.4C140.8 151.2 139.2 148.9 133.7 147.1C133.5 147 133.3 147 133.1 146.9L134.5 144.6C134.8 144.1 134.6 143.4 134.1 143.1L134 143C137.5 135.8 141.2 131.4 146.3 127.6L144.6 125C138.8 129.2 135.5 132.4 130.6 141L130.4 140.9C129.9 140.6 129.2 140.8 128.9 141.3L123.7 150.1L123 150C122.8 150 122.6 150.1 122.6 150.3L121.2 157.1C121.1 157.3 121.3 157.5 121.5 157.5ZM139.2 156L141.6 169.3C141.7 170 141.3 170.8 140.6 171C140.5 171 140.3 171.1 140.2 171.1C138.8 169.3 136.1 165.2 135.4 160.9C134.9 157.6 135.4 155.3 135.9 154C136 154 136.2 153.9 136.3 153.9C137.7 153.7 139 154.6 139.2 156ZM133.1 154.6C133.5 154.5 133.8 154.4 134.1 154.3C133.7 155.5 133.3 157.7 133.6 160.4C134.1 164.2 136.8 169.1 138.1 171.3C135.9 171.5 133.6 171.3 131.4 170.9V155C132 155 132.5 154.8 133.1 154.6Z" fill="#808080"/>
                    </g>
                    <g id="XMLID 1883">
                    <path id="XMLID 277" d="M154.3 138.8V271.4H143V145.3C143 141.7 150.7 138.8 154.3 138.8Z" fill="#1E2E40"/>
                    <path id="XMLID 276" d="M253.5 145.3V271.4H242.2V138.8C245.9 138.8 253.5 141.7 253.5 145.3Z" fill="#1E2E40"/>
                    <path id="XMLID 275" d="M151.7 271.5V124C151.7 120.8 154.3 118.2 157.5 118.2H239.1C242.3 118.2 244.9 120.8 244.9 124V271.5H151.7Z" fill="#D85F21"/>
                    <path id="XMLID 274" d="M165.9 195V134.1C165.9 132.8 166.9 131.8 168.2 131.8H232C233.3 131.8 234.3 132.8 234.3 134.1V195C234.3 196.3 233.3 197.3 232 197.3H168.1C166.9 197.2 165.9 196.2 165.9 195Z" fill="white"/>
                    <path id="XMLID 273" d="M259.5 268.9H137.1V279.5H259.5V268.9Z" fill="#F7AE2A"/>
                    <path id="XMLID 272" d="M244.9 214H151.7V250.8H244.9V214Z" fill="#F7AE2A"/>
                    <path id="XMLID 189" d="M127.8 174.9H124.5V176.4H127.8V174.9Z" fill="#1E2E40"/>
                    <path id="XMLID 188" d="M129.4 176.2H122.9V179H129.4V176.2Z" fill="#1E2E40"/>
                    <g id="XMLID 1893">
                    <path id="XMLID 181" d="M196.2 216.9C196.2 228.3 188.7 227.8 188 235.1C187.5 240.7 191.9 245.3 197.5 245.3C203.1 245.3 207.1 240.9 207.1 235.3C207.2 228.4 202.1 221.9 196.2 216.9Z" fill="#1E2E40"/>
                    <path id="XMLID 180" d="M202.5 241.5C203.6 240.2 204.4 238.6 204.6 236.8C205.4 231.1 201.9 225.1 197.6 220.3C201.4 225.6 204.3 232 203.4 238.3C203.2 239.4 202.9 240.5 202.5 241.5Z" fill="white"/>
                    </g>
                    <g id="XMLID 1884">
                    <path id="XMLID 179" d="M180.2 184.7H176.3V191.8H180.2V184.7Z" fill="#D85F21"/>
                    <path id="XMLID 178" d="M185.5 184.7H181.6V191.8H185.5V184.7Z" fill="#D85F21"/>
                    <path id="XMLID 177" d="M190.7 184.7H186.8V191.8H190.7V184.7Z" fill="#D85F21"/>
                    <path id="XMLID 176" d="M195.9 184.7H192V191.8H195.9V184.7Z" fill="#D85F21"/>
                    <path id="XMLID 175" d="M208.2 184.7H204.3V191.8H208.2V184.7Z" fill="#D85F21"/>
                    <path id="XMLID 174" d="M213.4 184.7H209.5V191.8H213.4V184.7Z" fill="#D85F21"/>
                    <path id="XMLID 173" d="M218.6 184.7H214.7V191.8H218.6V184.7Z" fill="#D85F21"/>
                    <path id="XMLID 172" d="M223.9 184.7H220V191.8H223.9V184.7Z" fill="#D85F21"/>
                    </g>
                    </g>
                    </g>
                    <g id="PipeItem">
                    <path id="XMLID 187" d="M132.9 151.2C132.9 151.2 131.4 154.1 132 158.5C132.6 163.6 137.2 170.6 137.2 170.6L139.3 170C139.3 170 134.6 164.5 133.7 158.8C132.9 153.5 134.8 150.8 134.8 150.8L132.9 151.2Z" fill="#1E2E40"/>
                    <path id="XMLID 185" d="M129.8 152.2H122.5V172.7H129.8V152.2Z" fill="#1E2E40"/>
                    <path id="XMLID 184" d="M129.3 172.7H123V174.9H129.3V172.7Z" fill="white"/>
                    <path id="XMLID 183" d="M128.7 139.2C133.6 130.6 136.9 127.3 142.7 123.1L144.4 125.7C139.2 129.5 135.5 134 132 141.2L128.7 139.2Z" fill="white"/>
                    <path id="XMLID 182" d="M129.8 169C132.9 169.6 136 169.8 139 168.9C139.7 168.7 140.2 168 140 167.2L137.6 153.9C137.3 152.5 136 151.6 134.6 151.9C133.6 152.1 132.5 152.3 131.4 152.6C127.1 153.8 122.4 156 122.4 156L119.8 155.5C119.6 155.5 119.5 155.3 119.5 155.1L120.9 148.3C120.9 148.1 121.1 148 121.3 148L121.8 148.1L127 139.3C127.3 138.8 128 138.6 128.5 138.9L132.2 141.1C132.7 141.4 132.9 142.1 132.6 142.6L131.2 144.9C131.4 145 131.6 145 131.8 145.1C137.3 146.8 138.9 149.1 139.3 150.4V150.5C139.5 151 142.1 161.9 142.8 168.6C142.9 169.7 142.3 170.8 141.2 171.2C137.5 172.7 133.7 173.4 129.8 172.7C128.2 172.5 128.5 168.8 129.8 169Z" fill="#D85F21"/>
                    <path id="XMLID 278" d="M127.3 274C127 274 126.6 274 126.3 274C118.4 273.4 110.2 266.1 110.5 253.8C110.8 241.8 115.3 231.5 120 220.5C125.4 208 124 194.3 124 177.4H128.5C128.5 195.2 129.8 209.4 124.2 222.3C119.7 232.8 115.4 242.8 115.1 253.9C114.9 263.4 120.9 269.1 126.7 269.5C131.3 269.9 136.5 266.9 137.7 257.6C139.5 243.4 137.7 232.4 136.4 224.4C135.5 219.1 134.9 215.3 135.6 212.4C137.1 205.8 142.3 204.1 144.8 204.1V208.6C144.4 208.6 141 208.8 140 213.4C139.5 215.5 140.1 219.1 140.9 223.7C142.3 232 144.1 243.3 142.3 258.2C140.6 269.9 133.4 274 127.3 274Z" fill="#1E2E40"/>
                    </g>
                    <g id="Meter">
                    <path id="XMLID 271" d="M198.5 135.3H198V139.5H198.5V135.3Z" fill="#1E2E40"/>
                    <path id="XMLID 270" d="M196.466 135.71L196.6 137.405L196.899 137.381L196.766 135.687L196.466 135.71Z" fill="#1E2E40"/>
                    <path id="XMLID 269" d="M194.843 135.931L195.109 137.61L195.405 137.563L195.139 135.884L194.843 135.931Z" fill="#1E2E40"/>
                    <path id="XMLID 268" d="M193.234 136.324L193.631 137.977L193.922 137.907L193.526 136.254L193.234 136.324Z" fill="#1E2E40"/>
                    <path id="XMLID 267" d="M191.624 136.77L192.149 138.386L192.435 138.294L191.909 136.677L191.624 136.77Z" fill="#1E2E40"/>
                    <path id="XMLID 266" d="M188.643 137.997L189.415 139.512L189.682 139.375L188.911 137.861L188.643 137.997Z" fill="#1E2E40"/>
                    <path id="XMLID 265" d="M187.181 138.862L188.07 140.312L188.325 140.155L187.437 138.706L187.181 138.862Z" fill="#1E2E40"/>
                    <path id="XMLID 264" d="M185.825 139.765L186.824 141.14L187.066 140.964L186.067 139.588L185.825 139.765Z" fill="#1E2E40"/>
                    <path id="XMLID 263" d="M185.835 141.866L184.73 140.573L184.502 140.768L185.606 142.061L185.835 141.866Z" fill="#1E2E40"/>
                    <path id="XMLID 262" d="M210.985 142.049L212.089 140.757L211.861 140.562L210.757 141.855L210.985 142.049Z" fill="#1E2E40"/>
                    <path id="XMLID 261" d="M210.529 139.57L209.529 140.945L209.772 141.121L210.771 139.746L210.529 139.57Z" fill="#1E2E40"/>
                    <path id="XMLID 260" d="M208.229 140.169L208.485 140.325L209.372 138.875L209.116 138.719L208.229 140.169Z" fill="#1E2E40"/>
                    <path id="XMLID 259" d="M206.945 139.356L207.213 139.492L207.984 137.977L207.716 137.841L206.945 139.356Z" fill="#1E2E40"/>
                    <path id="XMLID 258" d="M204.607 136.622L204.083 138.239L204.368 138.332L204.893 136.715L204.607 136.622Z" fill="#1E2E40"/>
                    <path id="XMLID 257" d="M202.704 137.891L202.995 137.961L203.393 136.308L203.101 136.238L202.704 137.891Z" fill="#1E2E40"/>
                    <path id="XMLID 256" d="M201.178 137.581L201.475 137.628L201.739 135.948L201.443 135.902L201.178 137.581Z" fill="#1E2E40"/>
                    <path id="XMLID 255" d="M199.677 137.433L199.976 137.456L200.109 135.761L199.81 135.738L199.677 137.433Z" fill="#1E2E40"/>
                    <path id="XMLID 254" d="M189.881 136.992L191.488 140.873L191.95 140.681L190.343 136.801L189.881 136.992Z" fill="#1E2E40"/>
                    <path id="XMLID 253" d="M204.703 140.648L205.165 140.84L206.772 136.959L206.31 136.768L204.703 140.648Z" fill="#1E2E40"/>
                    <path id="XMLID 252" d="M198.5 173.9H198V178.1H198.5V173.9Z" fill="#1E2E40"/>
                    <path id="XMLID 251" d="M200.055 177.615L199.922 175.92L199.623 175.944L199.756 177.638L200.055 177.615Z" fill="#1E2E40"/>
                    <path id="XMLID 250" d="M201.708 177.453L201.442 175.774L201.146 175.821L201.412 177.5L201.708 177.453Z" fill="#1E2E40"/>
                    <path id="XMLID 249" d="M203.296 177.067L202.899 175.414L202.607 175.484L203.004 177.137L203.296 177.067Z" fill="#1E2E40"/>
                    <path id="XMLID 248" d="M204.977 176.65L204.452 175.034L204.166 175.126L204.692 176.743L204.977 176.65Z" fill="#1E2E40"/>
                    <path id="XMLID 247" d="M207.979 175.35L207.207 173.835L206.94 173.971L207.712 175.486L207.979 175.35Z" fill="#1E2E40"/>
                    <path id="XMLID 246" d="M209.452 174.525L208.564 173.076L208.308 173.233L209.197 174.682L209.452 174.525Z" fill="#1E2E40"/>
                    <path id="XMLID 245" d="M210.742 173.649L209.742 172.273L209.5 172.45L210.499 173.825L210.742 173.649Z" fill="#1E2E40"/>
                    <path id="XMLID 244" d="M210.764 171.527L211.868 172.82L212.097 172.625L210.993 171.332L210.764 171.527Z" fill="#1E2E40"/>
                    <path id="XMLID 243" d="M212.83 169.403L214.123 170.507L214.318 170.279L213.025 169.175L212.83 169.403Z" fill="#1E2E40"/>
                    <path id="XMLID 242" d="M213.796 168.165L215.172 169.164L215.348 168.922L213.973 167.922L213.796 168.165Z" fill="#1E2E40"/>
                    <path id="XMLID 241" d="M214.702 166.944L216.152 167.832L216.309 167.576L214.859 166.688L214.702 166.944Z" fill="#1E2E40"/>
                    <path id="XMLID 240" d="M215.448 165.623L216.963 166.395L217.099 166.127L215.584 165.356L215.448 165.623Z" fill="#1E2E40"/>
                    <path id="XMLID 239" d="M216.645 162.835L218.261 163.361L218.354 163.075L216.737 162.55L216.645 162.835Z" fill="#1E2E40"/>
                    <path id="XMLID 238" d="M217.084 161.346L218.737 161.743L218.807 161.451L217.154 161.054L217.084 161.346Z" fill="#1E2E40"/>
                    <path id="XMLID 237" d="M217.289 159.885L218.968 160.152L219.015 159.855L217.336 159.589L217.289 159.885Z" fill="#1E2E40"/>
                    <path id="XMLID 236" d="M217.592 158.425L219.286 158.557L219.31 158.258L217.615 158.126L217.592 158.425Z" fill="#1E2E40"/>
                    <path id="XMLID 235" d="M217.613 155.32L219.308 155.187L219.284 154.888L217.59 155.021L217.613 155.32Z" fill="#1E2E40"/>
                    <path id="XMLID 234" d="M217.358 153.838L219.037 153.572L218.99 153.276L217.311 153.542L217.358 153.838Z" fill="#1E2E40"/>
                    <path id="XMLID 233" d="M217.179 152.395L218.832 151.998L218.761 151.706L217.109 152.103L217.179 152.395Z" fill="#1E2E40"/>
                    <path id="XMLID 232" d="M216.759 150.898L218.376 150.373L218.283 150.088L216.667 150.613L216.759 150.898Z" fill="#1E2E40"/>
                    <path id="XMLID 231" d="M215.573 148.066L217.087 147.295L216.951 147.028L215.436 147.799L215.573 148.066Z" fill="#1E2E40"/>
                    <path id="XMLID 230" d="M214.88 146.757L216.329 145.868L216.173 145.612L214.723 146.501L214.88 146.757Z" fill="#1E2E40"/>
                    <path id="XMLID 229" d="M213.98 145.511L215.356 144.512L215.179 144.269L213.804 145.269L213.98 145.511Z" fill="#1E2E40"/>
                    <path id="XMLID 228" d="M213.047 144.278L214.34 143.174L214.145 142.946L212.852 144.049L213.047 144.278Z" fill="#1E2E40"/>
                    <path id="XMLID 227" d="M183.666 144.059L182.374 142.955L182.179 143.183L183.471 144.287L183.666 144.059Z" fill="#1E2E40"/>
                    <path id="XMLID 226" d="M182.723 145.212L181.348 144.213L181.171 144.456L182.547 145.455L182.723 145.212Z" fill="#1E2E40"/>
                    <path id="XMLID 225" d="M181.872 146.432L180.423 145.544L180.266 145.799L181.715 146.688L181.872 146.432Z" fill="#1E2E40"/>
                    <path id="XMLID 224" d="M181.185 147.807L179.67 147.035L179.534 147.302L181.048 148.074L181.185 147.807Z" fill="#1E2E40"/>
                    <path id="XMLID 223" d="M180.005 150.576L178.389 150.05L178.296 150.336L179.913 150.861L180.005 150.576Z" fill="#1E2E40"/>
                    <path id="XMLID 222" d="M179.523 152.002L177.87 151.605L177.8 151.897L179.453 152.294L179.523 152.002Z" fill="#1E2E40"/>
                    <path id="XMLID 221" d="M179.22 153.527L177.541 153.261L177.494 153.557L179.173 153.823L179.22 153.527Z" fill="#1E2E40"/>
                    <path id="XMLID 220" d="M179.006 155.063L177.312 154.929L177.288 155.228L178.983 155.362L179.006 155.063Z" fill="#1E2E40"/>
                    <path id="XMLID 219" d="M178.978 158.034L177.284 158.167L177.307 158.466L179.002 158.333L178.978 158.034Z" fill="#1E2E40"/>
                    <path id="XMLID 218" d="M179.16 159.585L177.481 159.851L177.528 160.147L179.207 159.881L179.16 159.585Z" fill="#1E2E40"/>
                    <path id="XMLID 217" d="M179.449 161.128L177.796 161.525L177.866 161.816L179.519 161.42L179.449 161.128Z" fill="#1E2E40"/>
                    <path id="XMLID 216" d="M179.896 162.536L178.279 163.061L178.372 163.347L179.988 162.821L179.896 162.536Z" fill="#1E2E40"/>
                    <path id="XMLID 215" d="M181.045 165.319L179.53 166.091L179.667 166.359L181.181 165.587L181.045 165.319Z" fill="#1E2E40"/>
                    <path id="XMLID 214" d="M181.7 166.692L180.251 167.581L180.408 167.836L181.857 166.948L181.7 166.692Z" fill="#1E2E40"/>
                    <path id="XMLID 213" d="M182.554 167.968L181.178 168.967L181.355 169.21L182.73 168.211L182.554 167.968Z" fill="#1E2E40"/>
                    <path id="XMLID 212" d="M183.47 169.104L182.177 170.208L182.372 170.436L183.664 169.332L183.47 169.104Z" fill="#1E2E40"/>
                    <path id="XMLID 211" d="M185.601 171.348L184.497 172.641L184.725 172.836L185.829 171.543L185.601 171.348Z" fill="#1E2E40"/>
                    <path id="XMLID 210" d="M186.04 173.78L187.039 172.405L186.796 172.228L185.797 173.603L186.04 173.78Z" fill="#1E2E40"/>
                    <path id="XMLID 209" d="M188.355 173.211L188.099 173.055L187.212 174.505L187.468 174.661L188.355 173.211Z" fill="#1E2E40"/>
                    <path id="XMLID 208" d="M189.677 173.952L189.409 173.816L188.638 175.331L188.906 175.467L189.677 173.952Z" fill="#1E2E40"/>
                    <path id="XMLID 207" d="M191.988 176.728L192.514 175.112L192.228 175.019L191.703 176.636L191.988 176.728Z" fill="#1E2E40"/>
                    <path id="XMLID 206" d="M193.889 175.561L193.598 175.491L193.2 177.144L193.492 177.214L193.889 175.561Z" fill="#1E2E40"/>
                    <path id="XMLID 205" d="M195.434 175.844L195.137 175.797L194.871 177.476L195.167 177.523L195.434 175.844Z" fill="#1E2E40"/>
                    <path id="XMLID 204" d="M196.97 176.023L196.671 175.999L196.536 177.694L196.835 177.717L196.97 176.023Z" fill="#1E2E40"/>
                    <path id="XMLID 203" d="M206.708 176.398L205.101 172.518L204.639 172.709L206.246 176.589L206.708 176.398Z" fill="#1E2E40"/>
                    <path id="XMLID 202" d="M213.668 171.693L210.698 168.724L210.344 169.077L213.314 172.047L213.668 171.693Z" fill="#1E2E40"/>
                    <path id="XMLID 201" d="M214.103 163.586L217.983 165.193L218.175 164.731L214.294 163.124L214.103 163.586Z" fill="#1E2E40"/>
                    <path id="XMLID 200" d="M219.7 156.4H215.5V156.9H219.7V156.4Z" fill="#1E2E40"/>
                    <path id="XMLID 199" d="M214.313 150.323L218.193 148.715L218.001 148.254L214.122 149.861L214.313 150.323Z" fill="#1E2E40"/>
                    <path id="XMLID 198" d="M213.574 141.782L213.22 141.428L210.248 144.395L210.602 144.749L213.574 141.782Z" fill="#1E2E40"/>
                    <path id="XMLID 197" d="M186.364 144.395L183.394 141.425L183.04 141.778L186.01 144.748L186.364 144.395Z" fill="#1E2E40"/>
                    <path id="XMLID 196" d="M182.52 149.944L178.639 148.337L178.448 148.799L182.328 150.406L182.52 149.944Z" fill="#1E2E40"/>
                    <path id="XMLID 195" d="M181.1 156.4H176.9V156.9H181.1V156.4Z" fill="#1E2E40"/>
                    <path id="XMLID 194" d="M182.334 162.995L178.454 164.602L178.645 165.064L182.525 163.457L182.334 162.995Z" fill="#1E2E40"/>
                    <path id="XMLID 193" d="M185.982 168.643L183.012 171.612L183.366 171.966L186.336 168.996L185.982 168.643Z" fill="#1E2E40"/>
                    <path id="XMLID 192" d="M191.858 172.723L191.396 172.532L189.793 176.415L190.255 176.605L191.858 172.723Z" fill="#1E2E40"/>
                    </g>
                    <g id="RotateItem">
                    <path id="XMLID 334" opacity="0.27" d="M194 95.4C215.981 95.4 233.8 77.5809 233.8 55.6C233.8 33.6191 215.981 15.8 194 15.8C172.019 15.8 154.2 33.6191 154.2 55.6C154.2 77.5809 172.019 95.4 194 95.4Z" fill="#808080"/>
                    <path id="XMLID 333" opacity="0.27" d="M194 370.2C215.981 370.2 233.8 352.381 233.8 330.4C233.8 308.419 215.981 290.6 194 290.6C172.019 290.6 154.2 308.419 154.2 330.4C154.2 352.381 172.019 370.2 194 370.2Z" fill="#808080"/>
                    <path id="XMLID 332" opacity="0.27" d="M323.4 300.5C345.381 300.5 363.2 282.681 363.2 260.7C363.2 238.719 345.381 220.9 323.4 220.9C301.419 220.9 283.6 238.719 283.6 260.7C283.6 282.681 301.419 300.5 323.4 300.5Z" fill="#808080"/>
                    <path id="XMLID 330" opacity="0.27" d="M323.4 165.1C345.381 165.1 363.2 147.281 363.2 125.3C363.2 103.319 345.381 85.5 323.4 85.5C301.419 85.5 283.6 103.319 283.6 125.3C283.6 147.281 301.419 165.1 323.4 165.1Z" fill="#808080"/>
                    <path id="XMLID 329" opacity="0.27" d="M64.6 165.1C86.581 165.1 104.4 147.281 104.4 125.3C104.4 103.319 86.581 85.5 64.6 85.5C42.6191 85.5 24.8 103.319 24.8 125.3C24.8 147.281 42.6191 165.1 64.6 165.1Z" fill="#808080"/>
                    <path id="XMLID 331" opacity="0.27" d="M64.6 300.5C86.581 300.5 104.4 282.681 104.4 260.7C104.4 238.719 86.581 220.9 64.6 220.9C42.6191 220.9 24.8 238.719 24.8 260.7C24.8 282.681 42.6191 300.5 64.6 300.5Z" fill="#808080"/>
                    <g id="XMLID 2048" opacity="0.37">
                    <path id="XMLID 2052" opacity="0.37" d="M397 197.8C395.3 195.7 392.9 194.6 390.1 194.3H390L385 194.4V189L385.1 188.9C387.3 186.4 388.5 183.1 388.3 179.7C388.5 179.5 388.6 179.2 388.7 178.9C388.8 178.6 388.8 178.4 388.8 178.1C388.8 177.8 388.8 177.6 388.7 177.3C388.5 176.6 388.1 176 387.5 175.5C387.2 175.2 386.8 175 386.4 174.8C386.2 174.7 385.9 174.6 385.6 174.5C385.5 174.5 385.5 174.5 385.4 174.5C384.9 174.4 384.5 174.3 384 174.2C383.8 174.2 383.7 174.1 383.5 174.1C380 173.4 376.4 173.3 372.9 174C372.8 174 372.7 174 372.7 174C371.9 174.2 371.1 174.3 370.3 174.6C370.2 174.6 370.2 174.6 370.1 174.7C369.8 174.8 369.5 174.9 369.2 175.1C368.8 175.3 368.5 175.6 368.2 175.9C367.8 176.3 367.5 176.9 367.3 177.4C367.2 177.7 367.2 177.9 367.2 178.2C367.2 178.3 367.2 178.3 367.2 178.4C367.2 178.9 367.4 179.4 367.7 179.8C367.7 180 367.7 180.1 367.7 180.3C367.7 183.7 368.8 186.7 370.7 188.9V194.5H366.1H365.8C362.7 194.7 360.3 195.9 358.5 198.1C354.1 203.5 355.3 213.1 355.3 213.5L355.4 214.5H364.4H391.2H400.2L400.3 213.5C400.6 212.9 401.5 203.2 397 197.8ZM398.4 212.1H392.4L391.7 207.6C391.6 207 391 206.6 390.4 206.7C389.8 206.8 389.4 207.4 389.5 208L390.2 212.1H389.4L387.7 204.4L389.5 196.7H390.1C392.3 196.9 394 197.7 395.4 199.4C398.4 203 398.5 209.5 398.4 212.1ZM365.7 206.7C365.1 206.6 364.5 207 364.4 207.6L363.7 212.1H357.6C357.4 209.7 357.3 203.2 360.4 199.4C361.8 197.7 363.7 196.8 366.2 196.6H366.8L368.6 204.3L366.9 212H366L366.7 207.9C366.8 207.3 366.3 206.8 365.7 206.7ZM370.8 196.6H371.6L372 196.9C372.1 196.9 373.5 197.8 376.7 198C377 198 377.3 198 377.6 198C377.8 198 377.9 198 378.1 198C379.5 198 380.7 197.9 381.5 197.7C382.9 197.4 383.7 197 384.1 196.8L384.3 196.7H385H386.4L384.7 204.3H371.3L369.6 196.6H370.8ZM370.5 180.4C375.6 179 380.7 179 385.8 180.4C386.2 180.5 386.6 180.5 386.9 180.5C386.9 183.2 385.9 185.8 384.1 187.8L384 187.9C383.6 188.3 383.2 188.7 382.8 189C382.2 189.5 381.5 189.9 380.8 190.1C379.9 190.4 379 190.6 378.1 190.6C377.1 190.6 376.2 190.4 375.3 190.1C374.6 189.8 373.9 189.4 373.3 189C372.9 188.7 372.5 188.3 372.1 187.9C370.4 185.9 369.4 183.2 369.3 180.5C369.7 180.6 370.1 180.6 370.5 180.4ZM382.9 194.9C382.3 195.2 381.1 195.7 378.1 195.7C375 195.7 373.5 195 373.2 194.9L373.1 194.8V190.7C374.6 191.6 376.2 192.2 378 192.2C379.7 192.2 381.3 191.7 382.8 190.8V194.9H382.9Z" fill="#808080"/>
                    <path id="XMLID 318" opacity="0.37" d="M368.8 174.3C369.1 174.1 369.5 174 369.8 173.8C369.9 173.7 370.1 173.7 370.2 173.6C370.4 173.6 370.5 173.5 370.7 173.5C371.3 173.3 371.9 173.2 372.5 173.1C372.5 172.3 372.7 171.6 372.9 170.9C373 170.5 373.2 170.1 373.3 169.7C373.5 169.3 373.7 168.9 373.9 168.5C374.9 166.8 376.3 165.6 377.2 165V164.9C377.2 164.8 377.3 164.7 377.3 164.6H377C371.8 164.6 367.5 168.8 367.5 174.1V175.4C367.9 175 368.3 174.6 368.8 174.3Z" fill="#808080"/>
                    <path id="XMLID 317" opacity="0.37" d="M374.9 168.2C374.7 168.5 374.4 168.9 374.2 169.3C374 169.6 373.8 170 373.7 170.4C373.4 171.2 373.2 172.1 373.1 173C374.7 172.7 376.4 172.5 378 172.5C379.8 172.5 381.7 172.7 383.6 173.1C383.6 172.5 383.5 171.9 383.3 171.3C383.2 170.8 383 170.4 382.8 170C382.6 169.6 382.4 169.1 382.1 168.7C381 167.1 379.7 165.9 378.8 165.3C378.6 165.4 378.4 165.4 378.1 165.4C377.9 165.4 377.7 165.4 377.6 165.3C377 165.9 375.9 166.9 374.9 168.2Z" fill="#808080"/>
                    <path id="XMLID 316" opacity="0.37" d="M383 169.2C383.2 169.6 383.4 170.1 383.6 170.5C383.8 171 383.9 171.4 384 171.9C384.1 172.3 384.1 172.7 384.2 173.1C384.5 173.2 384.8 173.2 385.1 173.3C385.4 173.4 385.7 173.4 386 173.5C386.4 173.6 386.7 173.8 387 173.9C387.7 174.3 388.3 174.7 388.7 175.3V173.9C388.7 168.7 384.5 164.4 379.2 164.4H379C379.1 164.5 379.1 164.5 379.1 164.6C380.2 165.6 381.9 167 383 169.2Z" fill="#808080"/>
                    </g>
                    <g id="XMLID 2032" opacity="0.37">
                    <path id="XMLID 315" opacity="0.37" d="M108.2 332.1C107.9 330.9 107.6 330.2 107.3 329.7C107.2 329.7 107 329.7 106.8 329.7C106.7 329.7 106.5 329.7 106.4 329.6V334.4C107.2 334.9 108.3 336.2 108 339C107.9 340 108.2 340.6 108.6 340.8C108.9 341 109.2 340.9 109.5 340.7C110.2 340.1 110.5 338.5 109.4 335.6C108.8 334.2 108.4 333 108.2 332.1Z" fill="#808080"/>
                    <path id="XMLID 2043" opacity="0.37" d="M100.3 311.4C90.2 311.4 82 319.6 82 329.7C82 338.6 97.8 364.8 97.8 364.8C99.1 367 101.3 367 102.6 364.8C102.6 364.8 118.4 338.6 118.4 329.7C118.6 319.6 110.4 311.4 100.3 311.4ZM110.1 341.4C109.8 341.7 109.3 341.9 108.9 341.9C108.6 341.9 108.4 341.8 108.1 341.7C107.5 341.4 106.8 340.5 107 339C107.2 337.3 106.8 336.4 106.4 335.8V341.7C106.4 342.1 106 342.5 105.6 342.5H93.8C93.4 342.5 93 342.1 93 341.7V325.1C93 324.7 93.4 324.3 93.8 324.3H105.6C106 324.3 106.4 324.7 106.4 325.1V327.9H107C107.1 327.9 107.1 327.9 107.2 328L109.5 329.8C109.6 329.9 109.7 330.1 109.6 330.3C109.5 330.4 109.4 330.4 109.3 330.4C109.2 330.4 109.2 330.4 109.1 330.3L108.4 329.8C108.7 330.4 108.9 331.1 109.1 332C109.4 332.9 109.7 334.1 110.2 335.4C111.8 339.4 110.5 341 110.1 341.4Z" fill="#808080"/>
                    <path id="XMLID 2036" opacity="0.37" d="M104.1 325.8H95.4001C95.0001 325.8 94.6001 326.2 94.6001 326.6V331.5C94.6001 331.9 95.0001 332.3 95.4001 332.3H99.2001L100.6 328.3C100.6 328.2 100.7 328.2 100.7 328.2C100.8 328.2 100.8 328.3 100.8 328.3L100.3 332.2H104.1C104.5 332.2 104.9 331.8 104.9 331.4V328.4V327.7V326.5C104.9 326.2 104.5 325.8 104.1 325.8ZM96.3001 329.1L96.2001 329.2H96.1001C95.8001 328.9 95.5001 328.7 95.3001 328.6C95.2001 328.6 95.2001 328.5 95.3001 328.4C95.3001 328.3 95.4001 328.3 95.5001 328.4C95.8001 328.6 96.1001 328.8 96.4001 329.1C96.3001 328.9 96.3001 329 96.3001 329.1ZM98.0001 328.5C97.9001 328.5 97.8001 328.5 97.8001 328.4C97.7001 328.1 97.5001 327.7 97.4001 327.4C97.4001 327.3 97.4001 327.2 97.5001 327.2C97.6001 327.2 97.7001 327.2 97.7001 327.3C97.8001 327.6 98.0001 328 98.1001 328.3C98.1001 328.4 98.1001 328.5 98.0001 328.5ZM99.9001 328.2C99.9001 328.3 99.8001 328.4 99.7001 328.4C99.6001 328.4 99.5001 328.3 99.5001 328.2V327.1C99.5001 327 99.6001 326.9 99.7001 326.9C99.8001 326.9 99.9001 327 99.9001 327.1V328.2ZM102.1 327.4C102 327.7 101.8 328.1 101.7 328.4C101.7 328.5 101.6 328.5 101.6 328.5C101.6 328.5 101.6 328.5 101.5 328.5C101.4 328.5 101.4 328.4 101.4 328.3C101.5 328 101.7 327.6 101.8 327.3C101.8 327.2 101.9 327.2 102 327.2C102.1 327.3 102.1 327.4 102.1 327.4ZM104.2 328.5C103.9 328.7 103.7 328.9 103.4 329.1H103.3C103.3 329.1 103.2 329.1 103.2 329C103.1 328.9 103.2 328.8 103.2 328.8C103.4 328.6 103.6 328.5 103.7 328.4C103.8 328.3 103.9 328.2 104 328.2C104.1 328.2 104.2 328.2 104.2 328.2C104.3 328.3 104.3 328.4 104.2 328.5Z" fill="#808080"/>
                    <path id="XMLID 2033" opacity="0.37" d="M99.8 334.2L99.5 334.8C99.2 335.3 97.8 337.8 97.8 338.8C97.8 339.9 98.7 340.9 99.9 340.9C101 340.9 102 340 102 338.8C102 337.8 100.6 335.3 100.3 334.8L99.8 334.2ZM99.5 339.9C99.5 340 99.5 340 99.5 339.9C99.4 340 99.4 340 99.5 339.9C99.5 339.9 99.4 339.9 99.3 339.9C99.3 339.9 99.2 339.9 99.2 339.8C99.1 339.8 99.1 339.7 99 339.7C98.9 339.6 98.9 339.6 98.8 339.5C98.7 339.4 98.7 339.3 98.7 339.2C98.7 339.1 98.6001 339 98.6001 338.9C98.6001 338.8 98.6001 338.7 98.6001 338.6C98.6001 338.4 98.6 338.2 98.7 338C98.8 337.8 98.8 337.7 98.9 337.5C99 337.4 99.0001 337.3 99.1001 337.2V337.1V337.2C99.1001 337.3 99 337.4 99 337.5C99 337.6 99 337.6 99 337.7C99 337.8 99 337.9 99 338C99 338.2 99 338.4 99 338.5C99 338.6 99.0001 338.7 99.1001 338.8C99.1001 338.9 99.2 339 99.2 339C99.2 339.1 99.3 339.1 99.3 339.2C99.3 339.3 99.4 339.3 99.4 339.4V339.5V339.6C99.4 339.7 99.4 339.7 99.5 339.7C99.4 339.9 99.5 339.9 99.5 339.9Z" fill="#808080"/>
                    </g>
                    <g id="XMLID 2024" opacity="0.37">
                    <path id="XMLID 303" opacity="0.37" d="M308.3 39.9H308.4C308.6 39.9 308.9 39.6999 309 39.4999L312.2 32.0999C312.3 31.8999 312.3 31.6 312.1 31.4C311.9 31.2 311.7 31.0999 311.4 31.0999L309.4 31.2999C306.6 26.1999 302.2 22.2999 296.9 20.0999C290.8 17.6999 284.2 17.7999 278.2 20.3999C272.1 23.0999 267.4 27.9999 265 34.1999C260.1 46.9999 266.3 61.5999 279 66.5999C281.9 67.7999 284.9 68.2999 288 68.2999C291.3 68.2999 294.6 67.5999 297.8 66.1999C303.9 63.4999 308.6 58.5999 311 52.3999V52.2999V52.1999V52.0999C311 51.9999 311 51.9999 311 51.8999L310.9 51.7999C310.9 51.7999 310.9 51.6999 310.8 51.6999C310.7 51.5999 310.6 51.5999 310.6 51.4999L307.5 50.3C307.4 50.3 307.4 50.3 307.3 50.3H307.2H307.1C307 50.3 307 50.3 306.9 50.3C306.9 50.3 306.9 50.2999 306.8 50.3999C306.7 50.3999 306.7 50.4999 306.6 50.4999C306.6 50.4999 306.6 50.4999 306.6 50.5999C306.6 50.6999 306.5 50.6999 306.5 50.7999C304.5 55.8999 300.7 59.8999 295.8 61.9999C290.9 64.0999 285.5 64.1999 280.6 62.2999C270.3 58.1999 265.3 46.3999 269.3 35.9999C271.3 30.8999 275.1 26.8999 280 24.7999C284.9 22.6999 290.3 22.5999 295.2 24.4999C299.6 26.2999 302.6 28.5999 304.6 32.1999L302.9 32.4C302.6 32.4 302.4 32.6 302.3 32.9C302.2 33.1 302.3 33.3999 302.4 33.5999L307.7 39.6999C307.9 39.7999 308.1 39.9 308.3 39.9Z" fill="#808080"/>
                    <path id="XMLID 302" opacity="0.37" d="M276 40.4C275.3 41.4 274.7 42.2 274.4 42.6L273.8 43.4C273.6 43.7 273.4 43.9 273.3 44.2C272.8 45 272.8 45.1 272.8 45.2V47.6H280.6V44.7H276.4C276.5 44.5 276.6 44.3 276.8 44.1L277.2 43.5C277.7 42.8 278 42.2 278.3 41.9C279.2 40.6 279.8 39.7 280 39.2C280.5 38.2 280.7 37.2 280.7 36.1C280.7 35 280.3 34.1 279.6 33.3C278.8 32.5 277.9 32.1 276.9 32.1C275.7 32.1 274.8 32.5 274.1 33.2C273.3 34 272.9 35.2 272.9 36.7V37.4H275.8V36.5C275.8 36.2 275.8 36 275.9 35.8C276.2 35 276.6 34.9 276.9 34.9C277.2 34.9 277.5 35 277.7 35.3C277.9 35.6 278 35.9 278 36.2C278 36.7 277.9 37.3 277.6 37.9C277.2 38.6 276.7 39.5 276 40.4Z" fill="#808080"/>
                    <path id="XMLID 2027" opacity="0.37" d="M287 47.6V44.4H288.4V41.5H287V32.1H284.2L280.2 41.7V44.4H284.2V47.6H287ZM283.1 41.5L284.1 38.9V41.5H283.1Z" fill="#808080"/>
                    <path id="XMLID 299" opacity="0.37" d="M295.6 37.4H293.1L286.6 54.3H289.2L295.6 37.4Z" fill="#808080"/>
                    <path id="XMLID 298" opacity="0.37" d="M299.5 57.4L302.7 44.6L302.8 41.9H295.4V44.8H299.8L296.7 57.4H299.5Z" fill="#808080"/>
                    </g>
                    <g id="XMLID 2007" opacity="0.37">
                    <path id="XMLID 2021" opacity="0.37" d="M125.4 46.4999V43.7999H105.3C104.6 47.9999 101.5 52.6999 99.2 56.1999C98.8 56.7999 98.4 57.3999 98.1 57.8999L98 57.9999H125.4V55.1999H120.5V52.9999H125.4V51.8999H120.5V49.6999H125.4V48.5999H120.5V46.3999H125.4V46.4999ZM110.5 55.5999C110.2 55.8999 109.8 56.0999 109.4 56.0999V56.7999H108.1V56.0999C107.5 55.8999 107 55.5999 106.7 55.0999C106.4 54.5999 106.3 54.0999 106.2 53.4999L107.7 53.3999C107.8 53.9999 107.9 54.3999 108.2 54.5999C108.4 54.7999 108.6 54.8999 108.8 54.8999C109.1 54.8999 109.4 54.6999 109.6 54.3999C109.7 54.1999 109.8 53.9999 109.8 53.7999C109.8 53.3999 109.6 52.9999 109.2 52.5999C108.9 52.2999 108.4 51.8999 107.8 51.3999C107.3 50.9999 107 50.5999 106.8 50.1999C106.5 49.7999 106.4 49.2999 106.4 48.6999C106.4 48.1999 106.5 47.6999 106.8 47.2999C107.1 46.7999 107.6 46.4999 108.2 46.2999V45.6999H109.5V46.2999C109.9 46.3999 110.3 46.5999 110.5 46.7999C111 47.1999 111.2 47.7999 111.3 48.4999L109.8 48.7999C109.8 48.3999 109.6 48.0999 109.4 47.8999C109.3 47.6999 109.1 47.6999 108.8 47.6999C108.5 47.6999 108.3 47.7999 108.2 48.0999C108.1 48.2999 108 48.4999 108 48.7999C108 49.1999 108.2 49.6999 108.6 50.1999C108.7 50.3999 109 50.5999 109.3 50.7999C109.7 51.0999 109.9 51.2999 110 51.3999C110.4 51.7999 110.7 52.0999 110.9 52.4999C111.2 52.9999 111.4 53.4999 111.4 53.8999C111.3 54.4999 111 55.0999 110.5 55.5999Z" fill="#808080"/>
                    <path id="XMLID 295" opacity="0.37" d="M122.2 31.5999H105.4V32.7999H122.2V31.5999Z" fill="#808080"/>
                    <path id="XMLID 294" opacity="0.37" d="M122.2 33.9999H105.4V35.1999H122.2V33.9999Z" fill="#808080"/>
                    <path id="XMLID 293" opacity="0.37" d="M122.2 37.5999V36.3999H105.5H105.4V37.5999H105.5H122.2Z" fill="#808080"/>
                    <path id="XMLID 2009" opacity="0.37" d="M121.4 20.2999H95.1C93.8 20.2999 92.6 20.8999 91.9 21.7999C91.5 22.2999 91.2 22.7999 91.1 23.3999C90.7 23.4999 90.4 23.6999 90.1 23.6999C90 23.6999 90 23.7999 89.9 23.7999C87.7 24.6999 87.6 28.6999 86.4 30.7999C85.5 32.3999 81.2 36.8999 80.6 39.3999C80.1 41.5999 81.2 53.2999 80.3 55.4999C80.1 55.9999 79.9 56.4999 79.7 56.9999L78.3 56.3999L77.8 56.1999C77 55.8999 76.1 56.1999 75.8 56.9999L72.1 65.1999C71.8 65.9999 72.1 66.8999 72.9 67.1999L87.2 73.5999C87.4 73.6999 87.6 73.6999 87.8 73.6999C88.4 73.6999 89 73.2999 89.2 72.7999L92.9 64.5999C93.1 64.1999 93.1 63.7999 92.9 63.3999C92.8 63.1999 92.6 62.9999 92.5 62.7999C92.4 62.6999 92.3 62.5999 92.1 62.4999L90.8 61.8999C91.2 61.5999 91.7 61.3999 92.2 61.0999C93.4 60.5999 94.9 59.3999 96.1 57.7999C96.3 57.4999 96.6 57.1999 96.8 56.8999C99 53.4999 102.8 48.0999 103.7 43.5999C103.8 43.1999 103.8 42.7999 103.9 42.3999H105.5H121.5C123.5 42.3999 125.1 41.0999 125.5 39.3999C125.5 39.1999 125.6 38.8999 125.6 38.6999V23.9999C125.5 21.9999 123.6 20.2999 121.4 20.2999ZM90.9 63.7999L91.4 63.9999L87.7 72.1999L73.5 65.7999L77.2 57.5999L77.8 57.8999L79.2 58.4999L89.4 63.0999L90.9 63.7999ZM96.8 43.7999C95.9 45.1999 94.7 45.6999 93.9 45.9999C92.5 46.5999 92.5 43.8999 92.5 43.1999C92.5 43.0999 92.5 43.0999 92.5 42.9999C92.5 42.8999 92.4 42.3999 92.4 41.6999C92.9 41.9999 93.4 42.2999 94 42.3999C94.3 42.4999 94.6 42.4999 95 42.4999H96H97.3C97.2 42.9999 97 43.3999 96.8 43.7999ZM98.8 34.7999C98.8 34.7999 98.7 34.6999 98.8 34.7999C98.7 34.2999 98.6 33.9999 98.5 33.5999C98.5 33.1999 98.5 32.7999 98.6 32.4999C98.6 32.2999 98.7 32.1999 98.8 32.0999C98.8 32.0999 98.9 32.1999 99 32.2999C99.2 32.5999 99.2 32.9999 99.3 33.2999V33.3999C99.1 33.8999 98.9 34.3999 98.8 34.7999ZM102.6 35.5999C101.7 35.5999 100.9 35.6999 100.6 35.3999C100.6 35.3999 100.6 35.2999 100.5 35.2999C100.3 34.7999 100.4 33.5999 100.4 33.5999C100.4 33.5999 100.4 31.8999 101.7 31.9999L102.4 32.1999C102.8 32.9999 103 34.0999 103.1 35.2999V35.3999C103.3 35.3999 103.4 35.5999 102.6 35.5999ZM123.1 35.2999V38.8999C123.1 39.5999 122.3 40.1999 121.4 40.1999H105.4H103.8C103.8 39.1999 103.8 37.9999 103.9 37.1999C103.9 36.9999 103.9 36.1999 103.8 35.2999C103.6 33.5999 103.2 31.2999 102.1 31.1999C100.9 30.9999 99.9999 31.7999 99.3999 32.8999C99.2999 32.6999 99.3 32.3999 99.1 32.1999C99 32.0999 98.9999 31.9999 98.8999 31.8999C98.7999 31.7999 98.5999 31.6999 98.3999 31.7999C98.0999 31.9999 98.1 32.1999 98.1 32.3999C98 33.1999 98.0999 33.9999 98.3999 34.6999C98.3999 34.7999 98.5 34.9999 98.6 35.0999V35.1999C98.6 35.3999 98.5 35.4999 98.5 35.6999C98.4 35.6999 98.3 35.7999 98.2 35.7999C97.9 35.7999 97.5 35.6999 97.2 35.5999C97.2 35.5999 97.1 35.5999 97.1 35.4999C97.1 35.3999 97.1 35.2999 97 35.1999C97 35.1999 97 35.1999 97 35.0999C97 34.9999 97 34.8999 96.9 34.6999C96.9 34.5999 96.8 34.3999 96.8 34.2999C96.7 33.9999 96.6 33.7999 96.5 33.5999C96.4 33.3999 96.2 33.0999 96 32.8999C95.9 32.7999 95.8 32.6999 95.7 32.5999C95.6 32.4999 95.5 32.3999 95.4 32.2999C95.3 32.1999 95.1 32.1999 95 32.0999C94.9 31.9999 94.7 32.0999 94.5 32.0999H94.3L94.2 32.2999C94 32.7999 94.1 33.2999 94.3 33.6999C94.5 34.0999 94.7 34.3999 95 34.6999C95.1 34.7999 95.3 34.9999 95.4 35.0999C95.8 35.3999 96.3 35.6999 96.8 35.8999C96.8 35.9999 96.8 36.0999 96.8 36.0999V36.2999L96.7 36.4999V36.5999C96.7 36.6999 96.6 36.6999 96.6 36.7999C96.5 36.8999 96.4 36.8999 96.3 36.9999V37.0999C96.4 36.9999 96.6 36.9999 96.7 36.8999C96.8 36.7999 96.9 36.6999 97 36.5999L97.1 36.3999L97.2 36.1999C97.2 36.0999 97.2 36.0999 97.2 35.9999C97.6 36.0999 97.9999 36.1999 98.3999 36.1999H98.5C98.3 36.9999 97.9999 39.0999 97.8999 40.0999H96.3H95.1C94.7 40.0999 94.3 39.9999 94 39.7999C93.6 39.5999 93.3 39.1999 93.3 38.7999V35.1999V29.3999H93.7H123.1V35.2999V35.2999ZM96.7 35.3999C96.6 35.3999 96.6 35.2999 96.5 35.2999C96.1 35.0999 95.8 34.7999 95.5 34.3999C95.1 33.8999 94.8 33.3999 94.8 32.8999C94.9 32.8999 95 32.8999 95.1 32.9999C95.3 33.0999 95.5 33.1999 95.6 33.3999C95.8 33.5999 95.9 33.7999 96 33.9999C96.1 34.1999 96.3 34.3999 96.4 34.5999C96.5 34.6999 96.5 34.7999 96.5 34.8999C96.6 34.9999 96.6 35.0999 96.6 35.1999C96.7 35.3999 96.7 35.3999 96.7 35.3999ZM123.1 25.2999H93.7H93.3V23.9999C93.3 23.6999 93.5 23.3999 93.7 23.1999C94 22.8999 94.5 22.6999 95 22.6999H121.3C122.2 22.6999 123 23.2999 123 23.9999V25.2999H123.1Z" fill="#808080"/>
                    <path id="XMLID 284" opacity="0.37" d="M78.2999 60.8C78.1999 60.8 78.0999 60.7 77.9999 60.7C77.4999 60.7 76.9999 61 76.6999 61.4C76.4999 61.7 76.3999 62 76.3999 62.3C76.3999 62.8 76.6999 63.3 76.9999 63.6C77.2999 63.8 77.5999 64 77.9999 64C78.7999 64 79.3999 63.5 79.5999 62.7C79.5999 62.6 79.5999 62.5 79.5999 62.3C79.6999 61.6 79.0999 60.9 78.2999 60.8Z" fill="#808080"/>
                    </g>
                    <g id="XMLID 1856">
                    <path id="XMLID 171" opacity="0.5" d="M220.7 61.2H220V61.1H213.9V61.3L208.4 61.4L208 61.6V49.7C213.2 44.9 216.4 37.4 215.6 29.2C215.6 29.1 215.6 28.9 215.6 28.8V28.4V20.5V19.3C215.6 9.39997 206.8 2.59998 195.9 2.59998C185 2.59998 176.2 9.29997 176.2 19.3V20.5V29.5C176.2 30.1 176.1 30.7 176.1 31.3C176.1 38.3 178.7 45 183.1 49.4V61.2H178H171.9H171.3H170.9C146.5 62.8 151.3 99.1 151.3 99.1H167.3C167.5 94.5 169.2 85 170.2 85.2C171.4 85.4 170.5 97 170.3 99.1H171.9H220H221.2C221 96.9 220.2 85.4 221.3 85.2C222.3 85 224 94.6 224.2 99.1H240.1C240.2 99.1 243.7 63 220.7 61.2Z" fill="#808080"/>
                    <g id="XMLID 1857">
                    <g id="XMLID 1865">
                    <path id="XMLID 170" d="M181.4 45.9V62.1L191.9 67.4L206.3 62V45.9H181.4Z" fill="#F3CBA3"/>
                    <g id="XMLID 1877">
                    <g id="XMLID 1878">
                    <path id="XMLID 169" d="M194 52.7C205.6 52.7 215.2 40.7 213.9 27.2C212.7 15 205.6 5.09998 194 5.09998C182.5 5.09998 174.4 13.6 174.4 29.2C174.4 41.6 182.5 52.7 194 52.7Z" fill="#FFDFB9"/>
                    </g>
                    </g>
                    <path id="XMLID 168" d="M219 59.2L206.7 59.5L206.3 59.7L205.6 60C204.5 60.6 201.9 62.4 194 62.4C186.1 62.4 182.7 60.3 182.7 60.2L181.4 59.2H169.5H169.1C144.7 60.8 149.5 97.1 149.5 97.1H165.5C165.7 92.5 167.4 83 168.4 83.2C169.6 83.4 168.7 95 168.5 97.1H219.5C219.3 94.9 218.5 83.4 219.6 83.2C220.6 83 222.3 92.6 222.5 97.1H238.4C238.5 97.1 242 61 219 59.2Z" fill="#F7AE2A"/>
                    <g id="XMLID 1873">
                    <g id="XMLID 1874">
                    <path id="XMLID 167" d="M170.1 59.1H176.3L180.3 77.5H174.4L170.1 59.1Z" fill="#1E2E40"/>
                    </g>
                    </g>
                    <g id="XMLID 1870">
                    <g id="XMLID 1871">
                    <path id="XMLID 166" d="M218.3 59.1H212.2L208.2 77.5H214L218.3 59.1Z" fill="#1E2E40"/>
                    </g>
                    </g>
                    <g id="XMLID 1867">
                    <g id="XMLID 1868">
                    <path id="XMLID 165" d="M218.3 97.1H170.1L174.4 77.5H214L218.3 97.1Z" fill="#1E2E40"/>
                    </g>
                    </g>
                    <path id="XMLID 164" d="M194.2 5.09998C194.1 5.09998 194.1 5.09998 194 5.09998C182.5 5.09998 174.4 13.6 174.4 29.2C174.4 41.6 182.4 52.7 194 52.7C194.1 52.7 194.2 52.7 194.2 52.7V5.09998Z" fill="#FDD8AD"/>
                    </g>
                    <path id="XMLID 163" d="M194.2 1.79999C183.3 1.79999 174.5 8.49999 174.5 18.5V27.6C174.5 27.2 175.6 26.8 177.6 26.5C177.7 26.5 177.8 26.5 177.9 26.5L179.8 29.8C181 31.9 181.1 32.4 182.7 32.4H183C184.1 31.7 188.7 31.2 194.1 31.2C199.6 31.2 204.2 31.7 205.3 32.4H205.6C207.2 32.4 207.3 31.9 208.5 29.8L210.4 26.5C210.5 26.5 210.6 26.5 210.7 26.5C212.7 26.8 213.8 27.2 213.8 27.6V18.5C213.9 8.49999 205 1.79999 194.2 1.79999Z" fill="#F5CDA5"/>
                    <g id="XMLID 1858">
                    <path id="XMLID 162" d="M213.9 17.3V26.4C213.9 26 212.8 25.6 210.8 25.3C210.7 25.3 210.6 25.3 210.5 25.3L208.6 28.6C207.4 30.7 207.3 31.2 205.7 31.2H205.4C204.3 30.5 199.7 30 194.2 30C188.7 30 184.2 30.5 183.1 31.2H182.8C181.2 31.2 181 30.7 179.9 28.6L178 25.3C177.9 25.3 177.8 25.3 177.7 25.3C175.7 25.6 174.6 26 174.6 26.4V17.3C174.6 7.39997 183.4 0.599976 194.3 0.599976C205 0.599976 213.9 7.39997 213.9 17.3Z" fill="#F7AE2A"/>
                    <path id="XMLID 161" d="M210.8 25.3C210.7 25.3 210.6 25.3 210.5 25.3L208.6 28.6C207.4 30.7 207.3 31.2 205.7 31.2H205.4C204.3 30.5 199.7 30 194.2 30C188.7 30 184.2 30.5 183.1 31.2H182.8C181.2 31.2 181 30.7 179.9 28.6L178 25.3C177.9 25.3 177.8 25.3 177.7 25.3C181.2 24.5 187.3 24 194.3 24C201.1 24 207.3 24.5 210.8 25.3Z" fill="#D98F0A"/>
                    <g id="XMLID 1859">
                    <path id="XMLID 160" d="M198.2 14.4C197.4 11.8 194.3 7.09998 194.2 7.09998C194 7.09998 190.9 11.8 190.2 14.4C189.4 17.1 191.9 19.4 194.2 19.4C196.5 19.4 199 17.1 198.2 14.4Z" fill="#1E2E40"/>
                    <path id="XMLID 159" d="M191.9 11.9C191.4 12.8 191.1 13.7 190.8 14.4C190.4 15.8 191.1 17.2 192.1 18C191.2 16 191.1 14.2 191.9 11.9Z" fill="white"/>
                    </g>
                    </g>
                    </g>
                    </g>
                    <g id="XMLID 1812">
                    <path id="XMLID 1831" opacity="0.5" d="M353.4 224.9C353.4 223.3 352.4 221.2 351.3 220.2L351 220C349.8 219 347.6 218.1 346.1 218.1H320.5C318.9 218.1 316.9 219.1 316 220.4L309.1 229.9C309 230.1 308.9 230.3 308.8 230.5L306.8 231.2C306.7 231.2 306.5 231.3 306.3 231.4L305 228.2L305.6 228C306.6 227.6 307.1 226.6 306.8 225.8C306.5 225 305.4 224.7 304.4 225.1L296.1 228.5C295.1 228.9 294.6 229.9 294.9 230.7C295.2 231.5 296.3 231.8 297.3 231.4L297.9 231.2L299.5 235L298.3 235.7C297 236.5 295.9 238.4 295.9 240V289.7C295.9 291.3 296.8 293.4 298 294.4L299.3 295.6C300.4 296.7 302.6 297.5 304.2 297.5H321.9C323.5 297.5 326 297.5 327.5 297.5H345.2C346.8 297.5 349 296.6 350.1 295.6L351.4 294.4C352.5 293.3 353.5 291.2 353.5 289.7V240C353.5 239.9 353.5 239.9 353.5 239.8C353.5 239.7 353.5 239.7 353.5 239.6V224.9H353.4ZM317.8 225.6C318.7 224.4 320.7 223.3 322.2 223.2L336.9 222.5C338.5 222.4 339.1 223.5 338.4 224.9L337.3 226.9C336.6 228.3 334.7 229.3 333.1 229.2L319 228.1C317.4 228 316.9 226.9 317.8 225.6Z" fill="#808080"/>
                    <g id="XMLID 1813">
                    <g id="XMLID 1826">
                    <g id="XMLID 1829">
                    <path id="XMLID 146" d="M302.706 224.704L295.589 227.644L299.216 236.425L306.333 233.485L302.706 224.704Z" fill="#1E2E40"/>
                    </g>
                    <g id="XMLID 1827">
                    <path id="XMLID 145" d="M305 223.7C305.3 224.5 304.8 225.5 303.8 225.9L295.5 229.3C294.5 229.7 293.5 229.4 293.1 228.6C292.8 227.8 293.3 226.8 294.3 226.4L302.6 223C303.7 222.6 304.7 222.9 305 223.7Z" fill="#1E2E40"/>
                    </g>
                    </g>
                    <g id="XMLID 1822">
                    <path id="XMLID 1823" d="M351.7 222.9C351.7 221.3 350.7 219.2 349.6 218.2L349.3 218C348.1 217 345.9 216.1 344.4 216.1H318.8C317.2 216.1 315.2 217.1 314.3 218.4L307.4 227.9C307.3 228.1 307.2 228.3 307.1 228.5L305.1 229.2C303.6 229.7 301.3 230.7 300 231.6L296.5 233.7C295.2 234.5 294.1 236.4 294.1 238V287.7C294.1 289.3 295 291.4 296.2 292.4L297.5 293.6C298.6 294.7 300.8 295.5 302.4 295.5H320.1C321.7 295.5 324.2 295.5 325.7 295.5H343.4C345 295.5 347.2 294.6 348.3 293.6L349.6 292.4C350.7 291.3 351.7 289.2 351.7 287.7V238C351.7 237.9 351.7 237.9 351.7 237.8C351.7 237.7 351.7 237.7 351.7 237.6V222.9ZM316.1 223.6C317 222.4 319 221.3 320.5 221.2L335.2 220.5C336.8 220.4 337.4 221.5 336.7 222.9L335.6 224.9C334.9 226.3 333 227.3 331.4 227.2L317.3 226.1C315.7 226 315.2 224.9 316.1 223.6Z" fill="#F7AE2A"/>
                    </g>
                    <g id="XMLID 1814">
                    <path id="XMLID 1820" d="M314.8 273.8C314.6 274 314.3 274.3 313.9 274.6C313.5 274.9 313.1 275.2 312.5 275.5C311.9 275.8 311.3 276 310.5 276.2C309.7 276.4 308.9 276.5 307.9 276.5C306.7 276.5 305.7 276.3 304.7 276C303.8 275.6 303 275.1 302.3 274.3C301.6 273.6 301.1 272.6 300.8 271.5C300.4 270.4 300.3 269 300.3 267.5V264C300.3 262.5 300.5 261.1 300.8 260C301.1 258.9 301.6 257.9 302.3 257.2C302.9 256.4 303.7 255.9 304.6 255.5C305.5 255.1 306.5 255 307.7 255C308.9 255 309.9 255.1 310.8 255.4C311.7 255.7 312.4 256.1 313 256.7C313.6 257.3 314 258 314.3 258.9C314.6 259.8 314.8 260.8 314.9 261.9H310.8C310.7 261.2 310.6 260.7 310.5 260.2C310.4 259.8 310.2 259.4 310 259.1C309.8 258.8 309.5 258.6 309.1 258.5C308.8 258.4 308.4 258.3 307.9 258.3C307.3 258.3 306.9 258.4 306.4 258.6C306 258.8 305.6 259.1 305.4 259.6C305.1 260 304.9 260.6 304.8 261.3C304.7 262 304.6 262.8 304.6 263.8V267.4C304.6 268.4 304.7 269.2 304.8 269.9C304.9 270.6 305.2 271.2 305.5 271.6C305.8 272 306.2 272.4 306.6 272.6C307.1 272.8 307.6 272.9 308.2 272.9C308.6 272.9 308.9 272.9 309.2 272.8C309.5 272.7 309.7 272.7 309.9 272.6C310.1 272.5 310.2 272.4 310.4 272.3C310.5 272.2 310.6 272.1 310.7 272.1V268.3H307.7V265.1H314.9V273.8H314.8Z" fill="#1E2E40"/>
                    <path id="XMLID 1817" d="M327.3 271.9H321.5L320.4 276.2H315.9L322.5 255.2H326.4L333 276.2H328.5L327.3 271.9ZM322.4 268.4H326.3L324.3 260.9L322.4 268.4Z" fill="#1E2E40"/>
                    <path id="XMLID 1815" d="M342.5 270.7C342.5 270.3 342.5 270 342.4 269.7C342.3 269.4 342.2 269.1 342 268.9C341.8 268.6 341.5 268.4 341.1 268.2C340.7 268 340.2 267.7 339.5 267.4C338.7 267.1 338 266.8 337.2 266.4C336.5 266 335.9 265.6 335.3 265C334.8 264.5 334.3 263.9 334 263.2C333.7 262.5 333.5 261.7 333.5 260.8C333.5 259.9 333.7 259.1 334 258.4C334.3 257.7 334.8 257.1 335.4 256.5C336 256 336.7 255.6 337.5 255.3C338.3 255 339.2 254.9 340.2 254.9C341.2 254.9 342.1 255.1 342.9 255.4C343.7 255.7 344.4 256.2 345 256.7C345.6 257.3 346 258 346.3 258.7C346.6 259.5 346.8 260.4 346.8 261.3H342.6C342.6 260.9 342.6 260.5 342.5 260.1C342.4 259.7 342.3 259.4 342.1 259.1C341.9 258.8 341.7 258.6 341.3 258.5C341 258.4 340.6 258.3 340.2 258.3C339.8 258.3 339.4 258.4 339.2 258.5C338.9 258.6 338.7 258.8 338.5 259C338.3 259.2 338.2 259.5 338.1 259.8C338 260.1 338 260.4 338 260.8C338 261.1 338.1 261.5 338.2 261.7C338.3 262 338.6 262.2 338.8 262.5C339.1 262.7 339.4 263 339.8 263.2C340.2 263.4 340.6 263.6 341.1 263.8C342.1 264.2 342.9 264.5 343.7 265C344.4 265.4 345 265.9 345.5 266.5C346 267 346.4 267.7 346.6 268.4C346.8 269.1 347 269.9 347 270.7C347 271.6 346.8 272.4 346.5 273.2C346.2 273.9 345.8 274.5 345.2 275C344.6 275.5 344 275.9 343.2 276.1C342.4 276.4 341.5 276.5 340.5 276.5C339.6 276.5 338.7 276.4 337.8 276.1C336.9 275.8 336.2 275.4 335.5 274.8C334.8 274.2 334.3 273.5 333.8 272.7C333.4 271.8 333.2 270.8 333.2 269.6H337.5C337.5 270.2 337.6 270.8 337.7 271.2C337.8 271.6 338 272 338.3 272.3C338.6 272.6 338.9 272.8 339.2 272.9C339.6 273 340 273.1 340.5 273.1C340.9 273.1 341.2 273 341.5 272.9C341.8 272.8 342 272.6 342.2 272.4C342.4 272.2 342.5 271.9 342.6 271.7C342.5 271.3 342.5 271 342.5 270.7Z" fill="#1E2E40"/>
                    </g>
                    </g>
                    </g>
                    <g id="XMLID 1796">
                    <path id="XMLID 138" opacity="0.5" d="M103.8 277.7L75.2 228.2C72.9 224.2 69.5001 221.9 65.9001 221.9C62.3001 221.9 58.9 224.2 56.6 228.2L28 277.7C25.7 281.7 25.4001 285.8 27.2 288.9C29 292 32.7001 293.8 37.3001 293.8H94.5C99.1 293.8 102.8 292 104.6 288.9C106.4 285.8 106.1 281.7 103.8 277.7Z" fill="#808080"/>
                    <g id="XMLID 1797">
                    <g id="XMLID 1802">
                    <g id="XMLID 1808">
                    <g id="XMLID 1809">
                    <path id="XMLID 137" d="M35.6 288.6C28.5 288.6 25.6 283.6 29.1 277.4L57.7 227.9C61.3 221.7 67.1 221.7 70.6 227.9L99.2 277.4C102.8 283.6 99.8 288.6 92.7 288.6H35.6Z" fill="#1E2E40"/>
                    </g>
                    </g>
                    <g id="XMLID 1803">
                    <g id="XMLID 1804">
                    <path id="XMLID 1805" d="M92.8001 291.8H35.6001C31.0001 291.8 27.3001 290 25.5001 286.9C23.7001 283.8 24.0001 279.7 26.3001 275.7L54.9001 226.2C57.2001 222.2 60.6001 219.9 64.2001 219.9C67.8001 219.9 71.2001 222.2 73.5001 226.2L102.1 275.7C104.4 279.7 104.7 283.8 102.9 286.9C101.1 290 97.4001 291.8 92.8001 291.8ZM64.2001 226.5C63.0001 226.5 61.7001 227.6 60.6001 229.5L32.0001 279C30.9001 280.9 30.6001 282.6 31.2001 283.6C31.8001 284.7 33.4001 285.3 35.6001 285.3H92.8001C95.0001 285.3 96.6001 284.7 97.2001 283.6C97.8001 282.5 97.5001 280.9 96.4001 278.9L67.8001 229.4C66.8001 227.6 65.5001 226.5 64.2001 226.5Z" fill="#F7AE2A"/>
                    </g>
                    </g>
                    </g>
                    <g id="XMLID 1799">
                    <g id="XMLID 1800">
                    <path id="XMLID 134" d="M75.9 259.3C75 260.1 73.8 260.8 72.8 261.6C72.5 261.9 72.1 261.5 72.2 261.2C73.7 258.5 73.6 255.7 73.5 252.9C72.9 253.9 72.1 254.9 71.2 255.8C71 256 70.7 255.8 70.7 255.6C70.8 252.4 71 249.1 70 245.9C69.3 243.7 68.2 241.4 68.3 239.1C68.3 239 68.3 239 68.3 238.9C68 239.6 67.7 240.3 67.3 240.9C66.1 243.1 64.8 245.2 63.1 247.2C62.9 247.4 62.5 247.4 62.4 247.1C62 245.7 61.6 244.3 61.5 242.8C59.5 246.4 57.1 250.9 58.7 254.7C58.8 254.9 58.2 255.1 57.6 254.5C56.6 253.4 55.7 252.3 54.8 251.2C53.9 255.5 55.6 259.8 54.9 264.1C54.9 264.2 54.8 264.3 54.7 264.2C54.6 264.2 54.5 264.2 54.4 264.1C53.1 263.1 52 261.9 51.2 260.6C50.6 272.2 56.7 277.2 61.3 278.4C61.5 278.5 61.8 278.5 62 278.6C61.6 278.2 61.3 277.8 60.9 277.5C59.8 276.4 59 275.1 57.9 274C58.6 274.7 59.8 275.1 60.8 275.4C60.9 275.5 61.1 275.3 61.1 275.2C61.1 274 60.4 273.1 59.9 272C59.7 271.5 59.6 269.9 59.3 269.5C59.7 269.9 60.1 270 60.7 270.2C60.9 270.3 61.1 270.1 61.1 269.9C61 269.2 61.1 265.2 61.1 265.2C61.1 265.2 62 265.8 62.9 266.3C63.1 266.4 64.5 260.4 64.5 260.4C64.5 260.4 64.7 265.2 65.2 264.5C65.3 264.3 66.9 262.2 66.9 262.1V262.2C66.6 263.9 66.8 265.5 66.9 267.2C66.9 267.3 67 267.4 67.2 267.4C67.5 267.4 67.7 267.4 67.7 267.4C67.7 267.4 66.6 268.9 67.9 269.6C68.4 269.9 69 269.6 69.5 269.4C69.4 269.4 68.6 271.4 68.4 271.7C68 272.3 67.7 272.8 67.4 273.4C67.3 273.6 67.6 273.7 67.8 273.6C68.2 273.5 69.7 272.7 70.1 273.1C69.4 273.9 69 274.8 68.8 275.8C68.6 276.7 68.3 277.5 67.8 278.2C68.2 278.1 68.6 278 68.9 277.8C72.4 276.4 74.5 273.7 75.5 271C77.1 267.4 75.4 263.3 75.9 259.3Z" fill="white"/>
                    </g>
                    </g>
                    <path id="XMLID 133" d="M76.6001 280.4H52.9001V282.7H76.6001V280.4Z" fill="#D85F21"/>
                    </g>
                    </g>
                    <g id="XMLID 1685">
                    <g id="XMLID 1734" opacity="0.5">
                    <path id="XMLID 1742" opacity="0.5" d="M215.2 349.6H214.7C214.7 349.4 214.7 349.2 214.7 349C214.7 342 212.9 338.5 212.9 338.5C212.9 338.5 212.6 338.3 211.8 338.1C210.5 330.6 204.6 318.7 199.8 313.7C199.8 313.7 193.3 311.3 176.9 311.3C160.6 311.3 154 313.7 154 313.7C149.2 318.6 143.3 330.6 142 338.1C141.3 338.4 140.9 338.5 140.9 338.5C140.9 338.5 139.1 342 139.1 349C139.1 349.2 139.1 349.4 139.1 349.6H138.6C138.3 349.6 138 349.7 137.8 349.9C137.6 350.1 137.5 350.4 137.5 350.7C137.6 354.8 138.6 359.2 140.6 360.9C140.8 361.1 141.3 361.3 141.9 361.5V371.5C141.9 372.2 142.4 372.7 143.1 372.7H153.6C154.3 372.7 154.8 372.2 154.8 371.5V364C160.8 364.7 168.3 365.1 176.7 365.1C185.1 365.1 192.6 364.6 198.6 364V371.7C198.6 372.4 199.1 372.9 199.8 372.9H210.3C211 372.9 211.5 372.4 211.5 371.7V361.7C212.1 361.5 212.6 361.3 212.8 361.1C214.8 359.4 215.8 355 215.9 350.9C215.9 350.6 215.8 350.3 215.6 350.1C215.7 349.7 215.5 349.6 215.2 349.6ZM144.2 337.5C144.4 337.5 144.5 337.4 144.7 337.4C144.6 337.4 144.4 337.4 144.2 337.5ZM145 337.3C145.2 337.3 145.3 337.2 145.5 337.2C145.3 337.2 145.1 337.2 145 337.3ZM145.7 337.1C145.9 337.1 146 337 146.2 337C146.1 337 145.9 337 145.7 337.1ZM146.5 336.9C146.7 336.8 147 336.8 147.2 336.7C147 336.8 146.7 336.8 146.5 336.9ZM147.3 336.7C147.6 336.6 147.9 336.6 148.2 336.5C147.9 336.6 147.6 336.6 147.3 336.7ZM148.4 336.4C148.6 336.3 148.9 336.3 149.1 336.2C148.9 336.3 148.7 336.4 148.4 336.4ZM149.5 336.2C149.7 336.2 150 336.1 150.2 336.1C150 336.1 149.7 336.2 149.5 336.2ZM150.6 336C150.9 335.9 151.2 335.9 151.5 335.8C151.1 335.9 150.8 336 150.6 336ZM151.7 335.8C152.1 335.7 152.5 335.7 152.9 335.6C152.5 335.7 152.1 335.8 151.7 335.8ZM153 335.6C153.4 335.5 153.7 335.5 154.1 335.4C153.7 335.5 153.4 335.5 153 335.6ZM143.1 337.8C143.2 337.8 143.3 337.7 143.4 337.7C143.3 337.8 143.2 337.8 143.1 337.8ZM143.6 337.7C143.8 337.6 144 337.6 144.1 337.5C143.9 337.6 143.8 337.6 143.6 337.7ZM154.5 335.4C154.8 335.4 155.1 335.3 155.4 335.3C155.1 335.3 154.8 335.3 154.5 335.4ZM209.1 337.3C209.3 337.3 209.4 337.4 209.6 337.4C209.5 337.4 209.3 337.4 209.1 337.3ZM209.7 337.5C209.9 337.6 210.1 337.6 210.2 337.7C210.1 337.6 209.9 337.6 209.7 337.5ZM210.5 337.7C210.6 337.7 210.7 337.8 210.8 337.8C210.7 337.8 210.6 337.8 210.5 337.7ZM199.8 335.4C200.2 335.5 200.5 335.5 200.9 335.6C200.5 335.5 200.1 335.5 199.8 335.4ZM201 335.6C201.4 335.7 201.8 335.7 202.2 335.8C201.8 335.8 201.4 335.7 201 335.6ZM202.5 335.9C202.8 336 203.1 336 203.4 336.1C203 336 202.8 335.9 202.5 335.9ZM203.7 336.1C203.9 336.1 204.2 336.2 204.4 336.2C204.1 336.2 203.9 336.1 203.7 336.1ZM204.7 336.3C205 336.4 205.2 336.4 205.4 336.5C205.2 336.4 205 336.3 204.7 336.3ZM205.7 336.5C206 336.6 206.3 336.6 206.6 336.7C206.3 336.6 206 336.6 205.7 336.5ZM206.7 336.7C206.9 336.8 207.2 336.8 207.4 336.9C207.2 336.8 206.9 336.8 206.7 336.7ZM207.6 337C207.8 337 208 337.1 208.1 337.1C208 337 207.8 337 207.6 337ZM208.4 337.2C208.6 337.2 208.7 337.3 208.9 337.3C208.7 337.2 208.6 337.2 208.4 337.2ZM198.4 335.2C198.7 335.2 199 335.3 199.3 335.3C199.1 335.3 198.8 335.3 198.4 335.2ZM193.5 334.7C194 334.8 194.6 334.8 195.1 334.9C194.6 334.8 194.1 334.7 193.5 334.7ZM191.9 334.5C192.3 334.5 192.7 334.6 193.1 334.6C192.7 334.6 192.3 334.6 191.9 334.5ZM176.9 333.9C177.6 333.9 178.4 333.9 179.1 333.9C178.4 334 177.7 333.9 176.9 333.9ZM179.8 334C180.3 334 180.8 334 181.3 334C180.8 334 180.3 334 179.8 334ZM182 334C182.5 334 182.9 334 183.4 334C182.9 334 182.4 334 182 334ZM184 334.1C184.5 334.1 185 334.1 185.5 334.2C185.1 334.1 184.6 334.1 184 334.1ZM186 334.2C186.6 334.2 187.3 334.3 187.9 334.3C187.2 334.2 186.6 334.2 186 334.2ZM188.3 334.3C188.8 334.3 189.2 334.4 189.7 334.4C189.2 334.3 188.7 334.3 188.3 334.3ZM190.2 334.4C190.6 334.4 191 334.5 191.4 334.5C191 334.5 190.6 334.4 190.2 334.4ZM160.8 334.6C161.2 334.6 161.6 334.5 162 334.5C161.6 334.6 161.2 334.6 160.8 334.6ZM162.5 334.5C162.9 334.5 163.3 334.4 163.7 334.4C163.3 334.4 162.9 334.5 162.5 334.5ZM164.3 334.4C164.7 334.4 165.2 334.3 165.6 334.3C165.2 334.3 164.7 334.3 164.3 334.4ZM166.1 334.2C166.7 334.2 167.3 334.1 168 334.1C167.3 334.2 166.7 334.2 166.1 334.2ZM168.3 334.1C168.8 334.1 169.3 334.1 169.8 334C169.3 334.1 168.8 334.1 168.3 334.1ZM170.5 334.1C170.9 334.1 171.4 334.1 171.9 334.1C171.4 334 171 334 170.5 334.1ZM172.6 334C173.1 334 173.6 334 174.1 334C173.6 334 173.1 334 172.6 334ZM174.8 334C175.5 334 176.2 334 177 334C176.2 333.9 175.5 334 174.8 334ZM158.8 334.8C159.3 334.7 159.8 334.7 160.4 334.6C159.8 334.7 159.3 334.8 158.8 334.8ZM195.1 334.8C195.6 334.9 196.1 334.9 196.5 335C196.1 335 195.6 334.9 195.1 334.8ZM197 335.1C197.3 335.1 197.7 335.2 198 335.2C197.7 335.1 197.3 335.1 197 335.1ZM211.4 338C211.5 338 211.5 338 211.6 338.1C211.6 338.1 211.5 338.1 211.4 338ZM211 337.9C211.1 337.9 211.2 338 211.2 338C211.2 338 211.1 337.9 211 337.9ZM158.7 334.8C158.2 334.9 157.7 334.9 157.3 335C157.8 335 158.2 334.9 158.7 334.8ZM156.9 335.1C156.6 335.1 156.2 335.2 155.9 335.2C156.2 335.1 156.6 335.1 156.9 335.1ZM142.5 338C142.4 338 142.4 338 142.3 338.1C142.3 338.1 142.4 338.1 142.5 338ZM142.9 337.9C142.8 337.9 142.7 338 142.7 338C142.7 338 142.8 337.9 142.9 337.9Z" fill="#808080"/>
                    <path id="XMLID 79" opacity="0.5" d="M260.3 318.3C259.2 316.8 258.2 315.9 257.7 314.7C261.8 314.2 265 311.3 265.8 307.6C266.6 307.6 267.3 306.8 267.3 305.9C267.3 304.9 266.6 304.2 265.8 304.2C265.8 304 265.7 303.8 265.6 303.6C265.7 303.5 265.7 303.5 265.7 303.5C265.5 296.8 265.2 295.1 264.3 294.2C263.1 293 259.2 292.4 256.2 292.4C253.3 292.4 249.3 293 248.1 294.2C247.2 295.1 246.9 296.8 246.7 303.5L246.8 303.6C246.7 303.8 246.7 304 246.6 304.2C245.8 304.2 245.1 305 245.1 305.9C245.1 306.9 245.8 307.6 246.6 307.6C247.4 311.3 250.6 314.1 254.7 314.7C254.2 315.9 253.3 316.8 252.2 318.3C251.6 318.5 251 318.7 250.5 319C250.4 319 250.4 319.1 250.3 319.1C248.9 319.7 247.8 320.4 246.8 321.2C242.2 324.8 244 329 236.4 329.8C234.4 330 231.6 330.3 229.3 330.5L229.8 334.7C232.7 334.3 235.2 334.3 237.2 334C243.5 333.2 246.3 328.8 246.8 328V346.2L247.7 369.2H253.7L254.7 349.1C254.7 349.1 255 349.2 256.2 349.2C257.4 349.2 257.7 349.1 257.7 349.1L258.7 369.2H264.7L265.6 346.2V328C266.2 329 267.2 330.5 267.2 346.2H267.9C267.9 347.7 268.3 349.2 269.2 349.2C270.2 349.2 270.8 348 270.8 346.2H271.5C271.5 329.3 271.1 322.1 260.3 318.3Z" fill="#808080"/>
                    <path id="XMLID 1737" opacity="0.5" d="M229.9 334L229.5 331.2C227.7 331.4 226.6 332.2 226.7 333.1C226.7 333.2 226.7 333.2 226.8 333.3L223.2 331.5L222.9 330.6C222.9 330.6 222.8 330.5 222.6 330.4L221.1 329.9C221 329.9 217.5 330.4 217.5 330.4C217.3 330.4 217.1 330.6 217.2 330.8V330.9C214 331.1 212.5 331.6 210.4 332.7L210.9 333.6C212.8 332.6 214.6 332.2 217.3 332.3C217.4 333 218.7 335.5 219 335.8C219.1 335.9 222 338.3 223.8 339.5C224.1 339.7 224.5 339.7 224.8 339.4C225.8 338.5 226.5 337.5 226.9 336.2C226.9 336.2 226.9 336.2 226.9 336.1L227.1 335.7L227.5 335.9L227.3 336.3L228.1 336.7L229.2 334.6L228.4 334.2L228.2 334.6L227.8 334.4L227.5 335L228 334C228.6 334.1 229.3 334.1 229.9 334ZM223.9 338.3L220.3 335.6C219.9 335.3 219.9 334.8 220.1 334.4L220.2 334.3C220.6 334.3 221.4 334.5 222.3 335.2C223.5 336 224.3 337.5 224.6 338.1L224.5 338.2C224.4 338.4 224.1 338.5 223.9 338.3ZM225.6 336.6C225.5 336.9 225.3 337.2 225.1 337.5C224.6 336.8 223.6 335.2 222.5 334.6C221.8 334.1 221.1 333.9 220.6 333.8C221 333.4 221.5 333.3 222 333.5L224.9 335C225.6 335.4 225.8 336 225.6 336.6Z" fill="#808080"/>
                    <path id="XMLID 75" opacity="0.5" d="M243.8 372.1C243.8 372.3 243.9 372.8 246.6 372.8C249.3 372.8 250.2 372 250.2 372V372.8H252.7V369.2H248.9C247.9 371.8 244 370.7 243.8 372.1Z" fill="#808080"/>
                    <path id="XMLID 74" opacity="0.5" d="M263.8 369.2H260V372.8H262.5V372C262.5 372 263.4 372.8 266.1 372.8C268.9 372.8 269 372.3 268.9 372.1C268.6 370.7 264.7 371.8 263.8 369.2Z" fill="#808080"/>
                    </g>
                    <g id="XMLID 1686">
                    <path id="XMLID 70" d="M140.4 357.9V369.6C140.4 370.3 140.9 370.8 141.6 370.8H152.1C152.8 370.8 153.3 370.3 153.3 369.6V360.8C146.3 359.8 142.1 358.6 140.4 357.9Z" fill="#1E2E40"/>
                    <path id="XMLID 69" d="M210.1 357.9V369.6C210.1 370.3 209.6 370.8 208.9 370.8H198.4C197.7 370.8 197.2 370.3 197.2 369.6V360.8C204.2 359.8 208.4 358.6 210.1 357.9Z" fill="#1E2E40"/>
                    <path id="XMLID 55" d="M258.6 316.3C258.6 316.3 257.3 317 254.7 317C252 317 250.8 316.3 250.8 316.3C248.6 317.1 246.8 318 245.4 319.2C240.8 322.8 242.6 327 235 327.8C233 328 230.2 328.3 227.9 328.5L228.4 332.7C231.3 332.3 233.8 332.3 235.8 332C242.1 331.2 244.9 326.8 245.4 326V344.2H254.7H264V326C264.6 327 265.6 328.5 265.6 344.2H269.9C269.8 327.3 269.4 320.1 258.6 316.3Z" fill="#F7AE2A"/>
                    <path id="XMLID 54" d="M255.8 312.2H254.6H253.4C253 313.7 252 314.6 250.7 316.3C251.9 317 253.7 317.6 254.6 317.5C255.6 317.5 257.4 317 258.6 316.3C257.3 314.6 256.2 313.7 255.8 312.2Z" fill="#FFDFB9"/>
                    <path id="XMLID 53" d="M265.6 303.9C265.6 302.9 264.9 302.2 264.1 302.2C263.2 298.2 259.3 295.1 254.6 295.1C249.9 295.1 246 298.1 245.1 302.2C244.3 302.2 243.6 303 243.6 303.9C243.6 304.9 244.3 305.6 245.1 305.6C246 309.7 249.9 312.8 254.6 312.8C259.3 312.8 263.2 309.7 264.1 305.6C264.9 305.6 265.6 304.8 265.6 303.9Z" fill="#FFDFB9"/>
                    <path id="XMLID 52" d="M227.8 329.2C226 329.4 224.9 330.2 225 331.1C225.1 332 226.6 332.2 228.2 332L227.8 329.2Z" fill="#FFDFB9"/>
                    <path id="XMLID 51" d="M269.2 344.3C269.2 346.1 268.6 347.3 267.6 347.3C266.7 347.3 266.3 345.8 266.3 344.3H269.2Z" fill="#FFDFB9"/>
                    <path id="XMLID 50" d="M251 367.2H247.2C246.2 369.8 242.4 368.6 242.2 370.1C242.2 370.3 242.3 370.8 245 370.8C247.7 370.8 248.6 370 248.6 370V370.8H251.1V367.2H251Z" fill="#1E2E40"/>
                    <path id="XMLID 49" d="M258.2 367.2H262C263 369.8 266.8 368.6 267 370.1C267 370.3 266.9 370.8 264.2 370.8C261.5 370.8 260.6 370 260.6 370V370.8H258.1V367.2H258.2Z" fill="#1E2E40"/>
                    <path id="XMLID 48" d="M245.3 327V344.3L246.2 367.3H252.2L253.2 347.2C253.2 347.2 253.5 347.3 254.7 347.3C255.9 347.3 256.2 347.2 256.2 347.2L257.2 367.3H263.2L264.1 344.3V327H245.3Z" fill="#1E2E40"/>
                    <path id="XMLID 47" d="M249 327V317C248.5 317.2 248.1 317.4 247.6 317.7V327.1H249V327Z" fill="#1E2E40"/>
                    <path id="XMLID 46" d="M260.3 327V317C260.8 317.2 261.2 317.4 261.7 317.7V327.1H260.3V327Z" fill="#1E2E40"/>
                    <path id="XMLID 45" d="M262.7 292C261.5 290.8 257.6 290.2 254.6 290.2C251.7 290.2 247.7 290.8 246.5 292C245.6 292.9 245.3 294.6 245.1 301.3C245.1 301.3 250.1 301.8 254.5 301.8C259 301.8 263.9 301.3 263.9 301.3C263.8 294.6 263.6 292.9 262.7 292Z" fill="#F7AE2A"/>
                    <path id="XMLID 44" d="M254.6 300.4C249.4 300.4 245.2 301.3 245.2 301.3C245.2 301.3 246.1 302.4 247.7 303.9C248.6 304.8 250.3 303.7 254.7 303.7C259.1 303.7 260.8 304.9 261.7 303.9C263.2 302.3 264.2 301.3 264.2 301.3C264.2 301.3 259.8 300.4 254.6 300.4Z" fill="#1E2E40"/>
                    <g id="XMLID 1687">
                    <path id="XMLID 43" d="M257.1 296.1C256.6 294.5 254.8 291.6 254.6 291.6C254.5 291.6 252.6 294.5 252.1 296.1C251.6 297.7 253.1 299.2 254.6 299.2C256.1 299.1 257.6 297.7 257.1 296.1Z" fill="#1E2E40"/>
                    <path id="XMLID 42" d="M253.2 294.5C252.9 295 252.7 295.6 252.6 296C252.3 296.9 252.8 297.7 253.4 298.2C252.8 297 252.7 295.9 253.2 294.5Z" fill="white"/>
                    </g>
                    </g>
                    </g>
                    <g id="XMLID 1598">
                    <path id="XMLID 41" opacity="0.5" d="M66 87.2C43.9 87.2 26 105.1 26 127.2C26 149.3 43.9 167.2 66 167.2C88.1 167.2 106 149.3 106 127.2C106 105.1 88.1 87.2 66 87.2Z" fill="#808080"/>
                    <g id="XMLID 1606">
                    <g id="XMLID 1679">
                    <path id="XMLID 40" d="M64.3001 92.4C46.3001 92.4 31.6001 107.1 31.6001 125.1C31.6001 143.2 46.3001 157.8 64.3001 157.8C82.3001 157.8 97.0001 143.1 97.0001 125.1C97.1001 107.1 82.4001 92.4 64.3001 92.4Z" fill="#F7AE2A"/>
                    <path id="XMLID 1680" d="M64.3001 85.2C42.2001 85.2 24.3 103.1 24.3 125.2C24.3 147.3 42.2001 165.2 64.3001 165.2C86.4001 165.2 104.3 147.3 104.3 125.2C104.3 103.1 86.4001 85.2 64.3001 85.2ZM64.3001 157.9C46.3001 157.9 31.6 143.2 31.6 125.2C31.6 107.2 46.3001 92.5 64.3001 92.5C82.3001 92.5 97 107.2 97 125.2C97.1 143.2 82.4001 157.9 64.3001 157.9Z" fill="#D85F21"/>
                    </g>
                    <g id="XMLID 1658">
                    <g id="XMLID 1675">
                    <g id="XMLID 1676">
                    <g id="XMLID 1677">
                    <path id="XMLID 37" d="M43.5001 121.2C43.3001 121.2 43.1001 121.1 43.0001 120.9C41.5001 119.2 40.0001 117.8 38.7001 116.6C38.3001 116.3 38.3001 115.7 38.6001 115.3C38.9001 114.9 39.5001 114.9 39.9001 115.2C41.3001 116.4 42.8001 117.9 44.4001 119.6C44.7001 120 44.7001 120.6 44.3001 120.9C44.1001 121.1 43.8001 121.2 43.5001 121.2Z" fill="#1E2E40"/>
                    </g>
                    </g>
                    </g>
                    <g id="XMLID 1671">
                    <g id="XMLID 1672">
                    <g id="XMLID 1673">
                    <path id="XMLID 36" d="M53.3002 112.5C52.9002 112.5 52.6002 112.4 52.4002 112C51.4002 110.1 50.3002 108.3 49.3002 106.5C49.1002 106.1 49.2002 105.5 49.7002 105.2C50.1002 105 50.7002 105.1 51.0002 105.5C52.0002 107.3 53.1002 109.2 54.1002 111C54.3002 111.4 54.2002 112 53.7002 112.3C53.6002 112.5 53.4002 112.5 53.3002 112.5Z" fill="#1E2E40"/>
                    </g>
                    </g>
                    </g>
                    <g id="XMLID 1667">
                    <g id="XMLID 1668">
                    <g id="XMLID 1669">
                    <path id="XMLID 35" d="M85.1002 121.2C85.3002 121.2 85.5002 121.1 85.6002 120.9C87.1002 119.2 88.6002 117.8 89.9002 116.6C90.3002 116.3 90.3002 115.7 90.0002 115.3C89.7002 114.9 89.1002 114.9 88.7002 115.2C87.3002 116.4 85.8002 117.9 84.2002 119.6C83.9002 120 83.9002 120.6 84.3002 120.9C84.6002 121.1 84.9002 121.2 85.1002 121.2Z" fill="#1E2E40"/>
                    </g>
                    </g>
                    </g>
                    <g id="XMLID 1663">
                    <g id="XMLID 1664">
                    <g id="XMLID 1665">
                    <path id="XMLID 34" d="M75.3 112.5C75.7 112.5 76 112.4 76.2 112C77.2 110.1 78.3 108.3 79.3 106.5C79.6 106.1 79.4 105.5 79 105.2C78.6 105 78 105.1 77.7 105.5C76.7 107.3 75.6 109.2 74.6 111C74.4 111.4 74.5 112 75 112.3C75.1 112.5 75.2 112.5 75.3 112.5Z" fill="#1E2E40"/>
                    </g>
                    </g>
                    </g>
                    <g id="XMLID 1659">
                    <g id="XMLID 1660">
                    <g id="XMLID 1661">
                    <path id="XMLID 31" d="M64.3001 108.4C63.8001 108.4 63.4001 108 63.4001 107.5V101.1C63.4001 100.6 63.8001 100.2 64.3001 100.2C64.8001 100.2 65.2001 100.6 65.2001 101.1V107.5C65.2001 108 64.8001 108.4 64.3001 108.4Z" fill="#1E2E40"/>
                    </g>
                    </g>
                    </g>
                    </g>
                    <g id="XMLID 1641">
                    <g id="XMLID 1642">
                    <path id="XMLID 1643" d="M47.6001 133.6C47.6001 134.3 47.3001 135 46.8001 135.5C46.3001 136 45.6001 136.3 44.9001 136.3C44.1001 136.3 43.5001 136 42.9001 135.5C42.4001 135 42.1001 134.4 42.1001 133.6V127.6C42.1001 126.9 42.4001 126.2 42.9001 125.7C43.4001 125.2 44.1001 124.9 44.8001 124.9C45.6001 124.9 46.2001 125.2 46.7001 125.7C47.2001 126.2 47.5001 126.8 47.5001 127.6V133.6H47.6001ZM45.8001 127.6C45.8001 127.3 45.7001 127.1 45.5001 126.9C45.3001 126.7 45.1001 126.6 44.8001 126.6C44.5001 126.6 44.3001 126.7 44.1001 126.9C43.9001 127.1 43.8001 127.3 43.8001 127.6V133.6C43.8001 133.9 43.9001 134.1 44.1001 134.3C44.3001 134.5 44.5001 134.6 44.8001 134.6C45.1001 134.6 45.3001 134.5 45.5001 134.3C45.7001 134.1 45.8001 133.9 45.8001 133.6V127.6Z" fill="white"/>
                    </g>
                    </g>
                    <g id="XMLID 1637">
                    <g id="XMLID 1638">
                    <path id="XMLID 1639" d="M86.1001 136.2V127.7H84.6001V126.5C85.0001 126.5 85.4001 126.3 85.8001 126C86.2001 125.7 86.4001 125.4 86.6001 125.1H87.8001V136.1H86.1001V136.2Z" fill="white"/>
                    </g>
                    </g>
                    <g id="XMLID 1608">
                    <g id="XMLID 1633">
                    <g id="XMLID 1634">
                    <g id="XMLID 1635">
                    <path id="XMLID 503" d="M70.8999 128.2C70.6999 128.2 70.4999 128.2 70.3999 128.1C69.9999 127.9 69.4999 127.3 69.6999 126.3C69.9999 124.1 68.6999 123.6 68.5999 123.6L68.7999 123C68.8999 123 70.6999 123.6 70.2999 126.4C70.1999 127.1 70.4999 127.5 70.6999 127.6C70.8999 127.7 71.0999 127.7 71.2999 127.5C71.7999 127.1 71.9999 126 71.1999 124C70.7999 123.1 70.5999 122.3 70.3999 121.6C69.9999 120.1 69.7999 119.6 68.7999 119.5V118.9C70.2999 119 70.4999 120 70.8999 121.5C71.0999 122.1 71.2999 122.9 71.5999 123.8C72.6999 126.6 71.7999 127.7 71.4999 128C71.4999 128.1 71.1999 128.2 70.8999 128.2Z" fill="#1E2E40"/>
                    </g>
                    </g>
                    </g>
                    <g id="XMLID 1617">
                    <g id="XMLID 1628">
                    <g id="XMLID 1629">
                    <g id="XMLID 1630">
                    <g id="XMLID 1631">
                    <path id="XMLID 506" d="M71.1999 120.3H71.0999L69.5999 119.1H67.2999C67.1999 119.1 67.0999 119 67.0999 118.9C67.0999 118.8 67.1999 118.7 67.2999 118.7H69.5999C69.6999 118.7 69.6999 118.7 69.6999 118.7L71.2999 120C71.3999 120.1 71.3999 120.2 71.2999 120.3C71.2999 120.3 71.2999 120.3 71.1999 120.3Z" fill="#1E2E40"/>
                    </g>
                    </g>
                    </g>
                    </g>
                    <g id="XMLID 1623">
                    <g id="XMLID 1624">
                    <g id="XMLID 1625">
                    <g id="XMLID 1626">
                    <path id="XMLID 508" d="M69.4998 119.9C68.5998 119.9 68.2998 118.9 68.2998 118.9C68.2998 118.8 68.2998 118.7 68.3998 118.7C68.4998 118.7 68.5998 118.7 68.5998 118.8C68.5998 118.8 68.8998 119.6 69.5998 119.6C70.3998 119.6 70.8998 119.6 70.8998 119.6C70.9998 119.6 71.0998 119.7 71.0998 119.8C71.0998 119.9 70.9998 119.9 70.8998 119.9C70.7998 119.9 70.2998 119.9 69.4998 119.9Z" fill="#1E2E40"/>
                    </g>
                    </g>
                    </g>
                    </g>
                    <g id="XMLID 1618">
                    <g id="XMLID 1619">
                    <g id="XMLID 1620">
                    <g id="XMLID 1621">
                    <path id="XMLID 1258" d="M69.0998 119.8C69.0998 119.8 68.9998 119.8 69.0998 119.8C68.9998 119.7 68.9998 119.6 68.9998 119.6C69.0998 119.5 69.3998 119.3 69.3998 119.1C69.3998 119 69.3998 119 69.4998 119C69.5998 119 69.5998 119 69.5998 119.1C69.6998 119.4 69.1998 119.7 69.0998 119.8C69.0998 119.8 69.1998 119.8 69.0998 119.8Z" fill="#1E2E40"/>
                    </g>
                    </g>
                    </g>
                    </g>
                    </g>
                    <g id="XMLID 1613">
                    <g id="XMLID 1614">
                    <g id="XMLID 1615">
                    <path id="XMLID 504" d="M69.2 128C69.2 128.3 69 128.5 68.7 128.5H60.7C60.4 128.5 60.2 128.3 60.2 128V116.7C60.2 116.4 60.4 116.2 60.7 116.2H68.7C69 116.2 69.2 116.4 69.2 116.7V128Z" fill="#1E2E40"/>
                    </g>
                    </g>
                    </g>
                    <g id="XMLID 1609">
                    <g id="XMLID 1610">
                    <g id="XMLID 1611">
                    <path id="XMLID 505" d="M68.2 121.1C68.2 121.4 68 121.6 67.7 121.6H61.8C61.5 121.6 61.3 121.4 61.3 121.1V117.8C61.3 117.5 61.5 117.3 61.8 117.3H67.7C68 117.3 68.2 117.5 68.2 117.8V121.1Z" fill="#F7AE2A"/>
                    </g>
                    </g>
                    </g>
                    </g>
                    </g>
                    </g>
                    </g>
                    <g id="Car">
                    <path id="XMLID 73" d="M213 347.1C213 340.1 211.2 336.6 211.2 336.6C211.2 336.6 201.1 332 175.3 332C149.5 332 139.4 336.6 139.4 336.6C139.4 336.6 137.6 340.1 137.6 347.1C137.6 354.1 139.4 357.6 139.4 357.6C139.4 357.6 149.5 362.2 175.3 362.2C201.1 362.2 211.2 357.6 211.2 357.6C211.2 357.6 213 354 213 347.1Z" fill="#D85F21"/>
                    <path id="XMLID 72" d="M210.1 336.2C208.8 328.7 202.9 316.7 198.1 311.8C198.1 311.8 191.6 309.4 175.2 309.4C158.9 309.4 152.3 311.8 152.3 311.8C147.5 316.7 141.6 328.7 140.3 336.2C143.5 335.1 154.1 332 175.2 332C196.3 331.9 206.9 335 210.1 336.2Z" fill="#D85F21"/>
                    <path id="XMLID 71" d="M175.2 331.3C193.6 331.3 204.1 333.6 208.8 335C206.6 327.8 202.9 318.6 198.9 314.5C198.9 314.5 191.4 312.1 175.3 312.1C159.2 312.1 151.7 314.5 151.7 314.5C147.7 318.6 143.9 327.7 141.8 335C146.3 333.6 156.8 331.3 175.2 331.3Z" fill="white"/>
                    <path id="XMLID 68" d="M197.1 345.2C196.1 343.3 205.1 337.4 207.6 337.5C209.3 337.6 209.9 338.9 210.3 341.1C210.7 343.3 210.6 345.1 209.2 345.7C207.8 346.3 197.9 346.7 197.1 345.2Z" fill="#FFC90D"/>
                    <path id="XMLID 67" d="M153.3 345.2C154.3 343.3 145.3 337.4 142.8 337.5C141.1 337.6 140.5 338.9 140.1 341.1C139.7 343.3 139.8 345.1 141.2 345.7C142.7 346.3 152.6 346.7 153.3 345.2Z" fill="#FFC90D"/>
                    <path id="XMLID 66" d="M214.5 348.7C214.5 348.4 214.4 348.1 214.2 347.9C214 347.7 213.7 347.6 213.4 347.6H175.2H137C136.7 347.6 136.4 347.7 136.2 347.9C136 348.1 135.9 348.4 135.9 348.7C136 352.8 137 357.2 139 358.9C140.8 360.5 155.6 363 175.2 363C194.8 363 209.6 360.4 211.4 358.9C213.4 357.2 214.5 352.9 214.5 348.7Z" fill="#1E2E40"/>
                    <path id="XMLID 65" d="M190.7 342.1C189.5 340.9 185.4 338 175.2 338C165 338 160.9 340.9 159.7 342.1C158.9 342.9 158.5 344.2 158.3 345.1C158.2 345.3 158.3 345.6 158.5 345.8C158.7 346 158.9 346.1 159.2 346.1H175.3H191.4C191.7 346.1 191.9 346 192.1 345.8C192.3 345.6 192.3 345.3 192.3 345.1C191.9 344.3 191.5 342.9 190.7 342.1Z" fill="white"/>
                    <path id="XMLID 64" d="M159.2 345.6C159.1 345.6 159.1 345.6 159 345.5C159 345.4 158.9 345.4 159 345.3C159.3 344.1 159.7 343.1 160.3 342.5C160.9 341.9 164.7 338.6 175.3 338.6C185.9 338.6 189.7 341.8 190.3 342.5C190.8 343 191.3 344 191.6 345.3C191.6 345.4 191.6 345.4 191.6 345.5C191.6 345.6 191.5 345.6 191.4 345.6H159.2Z" fill="#1E2E40"/>
                    <path id="XMLID 63" d="M161.8 358.2V352.6C161.8 352.2 162.1 351.9 162.5 351.9H188C188.4 351.9 188.7 352.2 188.7 352.6V358.2C188.7 358.6 188.4 358.9 188 358.9H162.5C162.1 358.8 161.8 358.5 161.8 358.2Z" fill="#1E2E40"/>
                    <path id="XMLID 62" d="M187.7 358.2H162.7C162.5 358.2 162.4 358.1 162.4 357.9V352.8C162.4 352.6 162.5 352.5 162.7 352.5H187.7C187.9 352.5 188 352.6 188 352.8V357.9C188 358.1 187.9 358.2 187.7 358.2Z" fill="white"/>
                    </g>
                    <g id="hand">
                    <path id="XMLID 61" d="M218.5 331.8C218.5 331.8 219.6 331.8 220.8 332.6C222.2 333.5 223.6 336 223.6 336L223.1 336.5C223.1 336.5 222.2 334.3 220.6 333.2C219.2 332.2 218.1 332.3 218.1 332.3L218.5 331.8Z" fill="#1E2E40"/>
                    <path id="XMLID 60" d="M226.607 332.582L226.16 332.357L225.531 333.608L225.978 333.832L226.607 332.582Z" fill="#1E2E40"/>
                    <path id="XMLID 59" d="M227.548 332.589L226.744 332.185L225.666 334.329L226.47 334.734L227.548 332.589Z" fill="#1E2E40"/>
                    <path id="XMLID 58" d="M215.6 328.8C212.3 329 210.9 329.5 208.8 330.6L209.3 331.5C211.2 330.5 213.1 330.1 215.7 330.2L215.6 328.8Z" fill="white"/>
                    <path id="XMLID 1703" d="M226.4 332L221.5 329.5L221.2 328.6C221.2 328.6 221.1 328.5 220.9 328.4L219.4 327.9C219.3 327.9 215.8 328.4 215.8 328.4C215.6 328.4 215.4 328.6 215.5 328.8L215.6 330.2C215.7 330.9 217 333.4 217.3 333.7C217.4 333.8 220.3 336.2 222.1 337.4C222.4 337.6 222.8 337.6 223.1 337.3C224.1 336.4 224.8 335.4 225.2 334.1C225.2 334.1 225.2 334.1 225.2 334L226.4 332ZM222.9 336.3C222.7 336.5 222.4 336.5 222.2 336.4L218.6 333.7C218.2 333.4 218.2 332.9 218.4 332.5C218.5 332.4 218.7 332.2 218.8 332C219.2 331.6 219.8 331.5 220.3 331.7L223.2 333.2C223.8 333.5 224 334.2 223.8 334.8C223.6 335.2 223.3 335.8 222.9 336.3Z" fill="#F7AE2A"/>
                    </g>
                    <g id="RotateChips">
                    <path id="Nozzle" opacity="0.37" d="M281.1 358.4L286.9 361.2C288 361.7 289.4 361.3 289.9 360.2L290.1 359.8C290.5 358.9 290.3 357.9 289.7 357.3L290.3 356.1C294.5 357.1 297.8 357.4 300.5 356C304.2 354 307.6 348.6 309.6 344.8L311.2 345.6L312.7 340.8L310.5 337.9L306.4 333.1L306.9 331L309.5 329.4L308.7 328.1L312.2 326C313.1 325.4 314.8 324.8 315.9 324.5L331.2 320.8C332.3 320.5 332.9 319.5 332.7 318.4L332.4 317.1C332.1 316 331.1 315.4 330 315.6L314.3 319.4C313.2 319.7 312.2 319.9 312.1 320C312 320 310.8 320.7 309.9 321.3L306.1 323.6L305.4 322.4L294 329L291 335.1L291.2 335.8L282.5 353.7C281.6 353.6 280.7 354.1 280.3 355L280.1 355.4C279.5 356.5 280 357.9 281.1 358.4ZM297.5 353C298 346.7 302.6 345 305.4 344.6C303.6 347.8 301.1 351.4 298.8 352.6C298.4 352.8 297.9 353 297.5 353ZM292 352.6L298.5 339.3L303.8 341.9C296.9 343.9 296.5 351.1 296.5 353.1C295.2 353.2 293.7 353 292 352.6Z" fill="#808080"/>
                    <path id="Cylinder" opacity="0.37" d="M0.800062 163.7L1.80006 163C2.30006 162.6 3.10006 162.6 3.60006 162.8L16.3001 170.2C16.6001 170.1 16.9001 170.1 17.1001 170.1H17.2001C18.1001 170.1 18.9001 170.5 19.4001 171.1C24.3001 171 25.9001 173.7 27.0001 175.8C27.3001 176.4 27.7001 177 28.0001 177.4C28.3001 177.8 28.8001 178.3 29.4001 178.9C29.7001 178.9 30.1001 179 30.3001 179.2L33.0001 182.4C33.1001 182.5 33.2001 182.6 33.2001 182.6L46.1001 197.8C46.4001 198.2 46.3001 198.7 45.9001 199L40.3001 202.6C39.8001 202.9 39.3001 202.8 39.0001 202.3L28.0001 180.6C27.9001 180.3 27.9001 180 28.0001 179.7C27.5001 179.2 27.1001 178.7 26.7001 178.4C26.2001 177.9 25.9001 177.2 25.5001 176.6C24.5001 174.8 23.4001 172.9 19.9001 172.8C19.9001 172.9 19.9001 172.9 19.9001 173V175H20.1001C20.8001 175 21.3001 175.5 21.3001 176.2V179.4C24.8001 180.4 27.3001 182.8 27.3001 185.6V219.3H6.90006V185.6C6.90006 182.8 9.40006 180.3 12.9001 179.4V176C12.9001 175.3 13.4001 174.8 14.1001 174.8H14.3001V174L6.30006 174.6C5.90006 174.6 5.30006 174.4 4.90006 174.1L3.10006 172.5C2.70006 172.2 2.80006 172 3.20006 172L14.3001 172.7C14.3001 172.2 14.5001 171.7 14.7001 171.3L0.700064 164.7C0.200064 164.5 0.300062 164 0.800062 163.7Z" fill="#808080"/>
                    <g id="Nozzle2">
                    <path id="XMLID 1852" opacity="0.5" d="M362.2 154.4L361.9 153.7C361.3 152.4 359.9 151.6 358.5 151.8L345 124.1L345.4 123L340.8 113.5L323.6 102.9L322.5 104.8L316.6 101.2C315.1 100.3 313.4 99.3 313.2 99.3C313 99.2 311.5 98.8 309.8 98.4L286.3 92.7L284.3 100.8L307.2 106.4C308.9 106.8 311.4 107.9 312.9 108.7L318.3 111.9L317.1 113.9L321.1 116.3L321.8 119.6L315.5 127L312.1 131.5L314.4 139L316.8 137.8C319.8 143.6 325.1 152 330.8 155.1C335 157.3 340.1 156.8 346.6 155.3L347.5 157.1C346.5 158.1 346.3 159.7 346.9 161L347.2 161.7C348 163.4 350.1 164.2 351.9 163.3L360.8 159C362.3 158.2 363 156.1 362.2 154.4ZM323.1 137.7C327.5 138.4 334.6 141 335.3 150.7C334.6 150.6 333.9 150.4 333.3 150.1C329.7 148.2 325.9 142.7 323.1 137.7ZM336.9 150.9C336.9 147.8 336.3 136.7 325.6 133.5L333.8 129.5L343.8 150C341.2 150.6 338.9 151 336.9 150.9Z" fill="#808080"/>
                    <g id="XMLID 1835">
                    <g id="XMLID 1836">
                    <g id="XMLID 1850">
                    <path id="XMLID 155" d="M317.9 135.5C317.9 135.5 333.3 134.4 333.7 149.8L335.2 149.7C335.2 149.7 336.5 133.7 322 131.1L317.9 135.5Z" fill="#1E2E40"/>
                    </g>
                    <g id="XMLID 1845">
                    <g id="XMLID 1846">
                    <path id="XMLID 1847" d="M351.7 151.5C341.9 154.4 334.5 156.1 328.9 153.2C320.3 148.7 313 132.2 312.1 130.3L317.4 128C319.4 132.6 325.8 145 331.6 148.1C335.3 150 341.9 148.3 350.1 145.9L351.7 151.5ZM317.5 128L314.9 129.1L317.5 128Z" fill="#F7AE2A"/>
                    </g>
                    </g>
                    <g id="XMLID 1843">
                    <path id="XMLID 152" d="M341.413 118.233L330.264 123.661L347.207 158.457L358.356 153.028L341.413 118.233Z" fill="#1E2E40"/>
                    </g>
                    <path id="XMLID 151" d="M326.8 106.6L314.7 99.3C313.2 98.4 311.5 97.4 311.3 97.4C311.1 97.3 309.6 96.9 307.9 96.5L284.4 90.8L282.4 98.9L305.3 104.5C307 104.9 309.5 106 311 106.8L322.6 113.8C324.1 114.7 326 114.2 326.8 112.7L327.9 110.9C328.7 109.3 328.3 107.4 326.8 106.6Z" fill="#F5F5F5"/>
                    <g id="XMLID 1839">
                    <g id="XMLID 1840">
                    <path id="XMLID 150" d="M312.5 137.1L343.2 122.1L343.6 121L339 111.6L321.8 100.9L315.1 112L319.1 114.4L319.8 117.7L313.5 125.1L310.1 129.6L312.5 137.1Z" fill="#F7AE2A"/>
                    </g>
                    </g>
                    <g id="XMLID 1837">
                    <path id="XMLID 149" d="M360.5 152.4C361.3 154.1 360.6 156.2 358.9 157.1L350 161.4C348.3 162.2 346.2 161.5 345.3 159.8L345 159.1C344.2 157.4 344.9 155.3 346.6 154.4L355.5 150.1C357.2 149.3 359.3 150 360.2 151.7L360.5 152.4Z" fill="#1E2E40"/>
                    </g>
                    </g>
                    </g>
                    </g>
                    </g>
                    <g id="MeterRotate">
                    <g id="XMLID 1647">
                    <path id="XMLID 11" d="M64.3 153.3C69.0496 153.3 72.9 149.45 72.9 144.7C72.9 139.95 69.0496 136.1 64.3 136.1C59.5503 136.1 55.7 139.95 55.7 144.7C55.7 149.45 59.5503 153.3 64.3 153.3Z" fill="#1E2E40"/>
                    </g>
                    <g id="Meter1">                  
                    <g id="XMLID 1649">
                    <g id="XMLID 1655">
                    <g id="XMLID 1656">
                    <path id="XMLID 28" d="M61.174 141.004L60.4451 115.994L66.4925 140.751L61.174 141.004Z" fill="#1E2E40"/>
                    </g>
                    </g>
                    <g id="XMLID 1650">
                    <g id="XMLID 1651">
                    <path id="XMLID 1652" d="M66.7946 141.431L66.653 141.477L61.3345 141.731C61.0919 141.732 60.8898 141.642 60.6877 141.552C60.5263 141.371 60.4658 141.235 60.446 141.008L59.7576 115.906C59.7783 115.588 60.0417 115.268 60.426 115.221C60.8102 115.173 61.1738 115.444 61.2541 115.808L67.2609 140.656C67.2808 140.883 67.1996 141.065 67.1184 141.248C67.0778 141.339 66.9362 141.385 66.7946 141.431ZM61.8829 140.228L65.6038 140.027L61.4855 122.902L61.8829 140.228Z" fill="#1E2E40"/>
                    </g>
                    </g>
                    </g>
                    </g>                    
                    <g id="Meter2">
                    <path id="XMLID 191" d="M198.721 143.458L198.222 143.475L197.722 143.492L197.495 155.527L199.051 155.393L200.69 155.317L198.721 143.458Z" fill="#D85F21"/>
                    </g>
                    <path id="XMLID 190" d="M198.3 161C200.675 161 202.6 159.075 202.6 156.7C202.6 154.325 200.675 152.4 198.3 152.4C195.925 152.4 194 154.325 194 156.7C194 159.075 195.925 161 198.3 161Z" fill="#1E2E40"/>

                    </g>
                    <g id="Text">
                    <path id="XMLID 3" d="M159.9 383.8H166.2V385.4H161.9V394.1H166V395.7H161.9V407.8H159.9V383.8Z" fill="#F7AE2A" stroke="#FFC90D"/>
                    <path id="XMLID 5" d="M175.5 383.8H177.5V401.7C177.5 404 177.2 405.6 176.6 406.6C176 407.6 174.9 408.1 173.3 408.1C171.6 408.1 170.5 407.6 169.9 406.6C169.3 405.6 169 403.9 169 401.7V383.8H171V401.6C171 403.3 171.1 404.4 171.2 404.9C171.5 405.9 172.1 406.4 173.1 406.4C173.9 406.4 174.5 406.2 174.8 405.7C175.1 405.2 175.3 403.9 175.3 401.6V383.8H175.5Z" fill="#F7AE2A" stroke="#FFC90D"/>
                    <path id="XMLID 7" d="M181.8 383.8H188.2V385.4H183.9V394.8H188V396.5H183.9V406.3H188.2V407.9H181.9V383.8H181.8Z" fill="#F7AE2A" stroke="#FFC90D"/>
                    <path id="XMLID 9" d="M191.5 383.8H193.5V406.2H197.8V407.8H191.5V383.8Z" fill="#F7AE2A" stroke="#FFC90D"/>
                    <path id="XMLID 22" d="M200.4 383.8H202.4V407.9H200.4V383.8Z" fill="#F7AE2A" stroke="#FFC90D"/>
                    <path id="XMLID 24" d="M214.2 383.8H216V407.9H214.4L208.9 389.8L209 396.3V407.9H207.1V383.8H208.5L214.4 402.4L214.2 394.1V383.8V383.8Z" fill="#F7AE2A" stroke="#FFC90D"/>
                    <path id="XMLID 26" d="M220 390.8C220 388.3 220.2 386.6 220.7 385.6C221.4 384.2 222.6 383.5 224.2 383.5C225.2 383.5 226.1 383.7 226.6 384.1C227.2 384.5 227.5 385 227.7 385.4C228 386.3 228.2 387.2 228.3 388C228.4 388.8 228.4 389.7 228.4 390.8V392.8H226.3V389.1C226.3 387.7 226.2 386.7 225.9 386.1C225.6 385.5 225.1 385.2 224.3 385.2C223.5 385.2 222.9 385.6 222.6 386.4C222.3 387.2 222.1 388.6 222.1 390.6V400.4C222.1 402.7 222.2 404.2 222.5 405.1C222.8 406 223.4 406.4 224.2 406.4C225.1 406.4 225.6 406 225.9 405.1C226.2 404.2 226.3 402.7 226.3 400.4V397.4H224.2V395.7H228.3V407.9H227L226.8 406.5C226.5 407.1 226.1 407.5 225.6 407.8C225.1 408.1 224.6 408.2 223.8 408.2C222.5 408.2 221.5 407.6 220.9 406.4C220.3 405.2 220 403.3 220 400.6V390.8Z" fill="#F7AE2A" stroke="#FFC90D"/>
                    </g>
                    </g>
        </svg>

 