<svg width="95" height="98" viewBox="0 0 95 98" fill="none" xmlns="http://www.w3.org/2000/svg">
<g id="petrolicon">
<g id="Group">
<path id="Vector" d="M43.5776 30.0614L29.8574 15.2991C29.53 14.9468 29.1075 14.7037 28.6446 14.6012L5.28516 9.43125L6.77727 2.28125L30.8508 7.60881C32.2397 7.91632 33.507 8.64567 34.4891 9.70262L48.7081 25.0061L43.5776 30.0614Z" fill="#808080"/>
<path id="Vector_2" d="M75.8513 75.7887L84.5437 71.9082L92.9444 91.8603L84.2521 95.7408L75.8513 75.7887Z" fill="#808080"/>
<path id="Vector_3" d="M90.6459 77.8438L81.6112 52.1525C81.2406 51.1042 81.2322 49.9564 81.5875 48.9025L83.0157 44.6531C83.3724 43.5893 83.3606 42.4311 82.9823 41.3751C82.6041 40.3192 81.8826 39.4305 80.9405 38.86L52.3291 21.5538C51.4266 21.0047 50.3726 20.7802 49.3327 20.9155C48.2928 21.0509 47.3261 21.5383 46.5847 22.3013L40.2327 28.8338C39.6047 29.4833 39.1666 30.3015 38.9684 31.1951C38.7703 32.0887 38.8202 33.0217 39.1123 33.8875L56.7715 86.0744C56.9333 86.5488 57.1925 86.9818 57.5313 87.3439C57.8701 87.706 58.2807 87.9888 58.7351 88.173C59.1894 88.3573 59.677 88.4386 60.1647 88.4116C60.6523 88.3845 61.1286 88.2497 61.5611 88.0163L74.0993 81.2156L75.5591 84.6688C75.739 85.0981 76.0009 85.4858 76.3294 85.8087C76.6578 86.1316 77.0459 86.3832 77.4707 86.5485C77.8955 86.7137 78.3483 86.7893 78.8021 86.7707C79.2558 86.752 79.7013 86.6396 80.1119 86.44L88.8942 82.1988C89.6623 81.8301 90.2683 81.1783 90.5926 80.3721C90.9169 79.5658 90.9359 78.6637 90.6459 77.8438ZM60.7326 82.9544L51.4611 55.5569C51.1246 54.5674 51.0878 53.496 51.3554 52.4845C51.6229 51.4729 52.1824 50.5688 52.9597 49.8917C53.737 49.2146 54.6956 48.7963 55.7087 48.6923C56.7218 48.5882 57.7418 48.8031 58.6337 49.3088L61.6637 51.0313C62.7473 51.6415 63.5736 52.6428 63.9835 53.8425L71.9057 76.9013L60.7326 82.9544Z" fill="white"/>
<path id="Vector_4" d="M21.0664 46.2375C21.0664 48.8234 20.0688 51.3033 18.2931 53.1318C16.5173 54.9603 14.1089 55.9875 11.5977 55.9875C9.08639 55.9875 6.67797 54.9603 4.90224 53.1318C3.1265 51.3033 2.12891 48.8234 2.12891 46.2375C2.12891 38.7625 11.5977 28.7363 11.5977 28.7363C11.5977 28.7363 21.0664 38.7625 21.0664 46.2375Z" fill="#2338F7"/>
</g>
<g id="Group_2">
<path id="Vector_5" d="M94.1375 91.2776L90.5504 82.7594C91.2922 82.1154 91.8238 81.2523 92.0735 80.2869C92.3232 79.3215 92.2788 78.3005 91.9463 77.3619L82.9115 51.6674C82.6511 50.9249 82.645 50.113 82.8942 49.3664L84.3192 45.1154C84.776 43.7407 84.7586 42.2458 84.2699 40.8827C83.7812 39.5196 82.8512 38.3717 81.6364 37.6323L53.0274 20.3261C51.8604 19.621 50.4994 19.3343 49.1572 19.5107C47.8151 19.6871 46.5677 20.3167 45.6102 21.3011L41.3879 25.6455L30.8563 14.3168C30.3369 13.7571 29.6661 13.371 28.931 13.2086L6.92482 8.33925L7.83618 3.97044L30.5509 9.00062C31.6716 9.247 32.6952 9.8327 33.4902 10.6825L41.1023 18.8733C41.3555 19.1458 41.7035 19.3035 42.0696 19.3118C42.4358 19.3202 42.7902 19.1783 43.0548 18.9176C43.3194 18.6569 43.4726 18.2985 43.4807 17.9215C43.4888 17.5444 43.351 17.1795 43.0978 16.9071L35.4834 8.71381C34.3074 7.45454 32.7924 6.58639 31.1333 6.22106L7.06685 0.891059C6.88948 0.851569 6.7063 0.848505 6.52778 0.882043C6.34926 0.915582 6.17893 0.985063 6.02653 1.08651C5.87414 1.18795 5.74269 1.31936 5.6397 1.47321C5.53672 1.62705 5.46423 1.80031 5.42639 1.98306L3.93506 9.13306C3.85827 9.50176 3.92687 9.88677 4.12574 10.2034C4.32462 10.52 4.6375 10.7423 4.99556 10.8214L28.3447 15.9873C28.5402 16.0311 28.7191 16.1327 28.8592 16.2798L39.4326 27.6548L39.2606 27.8319C38.4499 28.6713 37.8841 29.7279 37.6275 30.8818C37.3708 32.0357 37.4336 33.2406 37.8087 34.3596L41.526 45.3405C41.6598 45.6778 41.9142 45.9494 42.2368 46.0991C42.5593 46.2489 42.9254 46.2654 43.2595 46.1454C43.5935 46.0253 43.8701 45.7777 44.0321 45.4538C44.194 45.1299 44.2291 44.7543 44.1299 44.4045L40.4158 33.4211C40.2108 32.8082 40.1767 32.1483 40.3174 31.5164C40.4581 30.8845 40.768 30.3059 41.2119 29.8461L47.56 23.3136C48.0849 22.7732 48.7692 22.4276 49.5055 22.3308C50.2418 22.2341 50.9884 22.3917 51.6284 22.779L80.2374 40.0853C80.9036 40.4907 81.4138 41.1202 81.6818 41.8678C81.9499 42.6154 81.9595 43.4352 81.709 44.1892L80.284 48.4402C79.8284 49.8022 79.8392 51.2837 80.3147 52.6384L89.3495 78.3321C89.5228 78.8183 89.5123 79.3537 89.3201 79.8323C89.1279 80.3109 88.768 80.6976 88.3119 80.9158C88.3 80.9207 88.2874 80.9223 88.2756 80.928C88.2637 80.9337 88.2361 80.9516 88.2156 80.9621L79.7182 85.0644C79.7119 85.0644 79.7048 85.0685 79.6985 85.0718C79.6922 85.075 79.6764 85.0848 79.6645 85.0904L79.5272 85.1571C79.2834 85.2748 79.019 85.341 78.7499 85.3516C78.4807 85.3623 78.2122 85.3173 77.9603 85.2193C77.7083 85.1213 77.478 84.9722 77.2829 84.7809C77.0879 84.5897 76.9321 84.3601 76.8247 84.1057L75.3673 80.6469C75.2918 80.4673 75.181 80.3057 75.0419 80.1723C74.9029 80.0389 74.7385 79.9365 74.5592 79.8716C74.3799 79.8067 74.1895 79.7806 74 79.795C73.8105 79.8095 73.6259 79.8641 73.4578 79.9554L60.9212 86.7561C60.6647 86.8951 60.382 86.9755 60.0926 86.9918C59.8032 87.008 59.5138 86.9598 59.2441 86.8503C58.9744 86.7409 58.7309 86.5728 58.5301 86.3576C58.3292 86.1423 58.1759 85.885 58.0805 85.6031L49.06 58.958C48.9394 58.6019 48.6864 58.3097 48.3567 58.1457C48.0269 57.9816 47.6474 57.9592 47.3015 58.0833C46.9557 58.2075 46.6719 58.468 46.5126 58.8075C46.3533 59.1471 46.3316 59.5379 46.4521 59.894L55.4695 86.5375C55.6953 87.206 56.0587 87.8163 56.5348 88.3268C57.0108 88.8373 57.5884 89.2358 58.2279 89.4952C58.8674 89.7546 59.5537 89.8687 60.24 89.8297C60.9263 89.7906 61.5963 89.5994 62.2042 89.2691L73.4223 83.1835L74.2902 85.2367C74.7155 86.2471 75.4582 87.0809 76.3992 87.6042C77.3401 88.1275 78.4246 88.3098 79.4783 88.1219L82.9178 96.2834C83.025 96.5379 83.202 96.7545 83.4272 96.9067C83.6523 97.0588 83.9158 97.1399 84.1851 97.1398C84.3752 97.1406 84.5633 97.1004 84.7374 97.022L93.4242 93.1472C93.5907 93.0732 93.7413 92.9662 93.8675 92.8321C93.9937 92.6981 94.093 92.5398 94.1597 92.3662C94.2264 92.1926 94.2592 92.0072 94.2562 91.8205C94.2532 91.6339 94.2145 91.4497 94.1423 91.2785L94.1375 91.2776ZM84.9016 93.85L82.0491 87.0803L88.1249 84.1463L91.0555 91.1046L84.9016 93.85Z" fill="#051720"/>
<path id="Vector_6" d="M47.4416 54.1764L46.1444 50.3455C46.0916 50.1606 46.0028 49.9887 45.8835 49.8403C45.7642 49.6918 45.6168 49.5699 45.4503 49.4819C45.2838 49.3939 45.1017 49.3416 44.915 49.3283C44.7283 49.315 44.5409 49.341 44.3642 49.4045C44.1875 49.4681 44.0253 49.568 43.8872 49.6981C43.7492 49.8282 43.6383 49.9859 43.5612 50.1615C43.4842 50.3371 43.4426 50.527 43.4391 50.7197C43.4355 50.9124 43.47 51.1038 43.5405 51.2823L44.8369 55.1124C44.9574 55.4685 45.2104 55.7607 45.5402 55.9248C45.87 56.0888 46.2495 56.1112 46.5953 55.9871C46.9412 55.863 47.2249 55.6025 47.3842 55.2629C47.5435 54.9233 47.5653 54.5325 47.4448 54.1764H47.4416Z" fill="#051720"/>
<path id="Vector_7" d="M59.721 33.3261C60.0368 33.5172 60.4134 33.5713 60.7679 33.4766C61.1225 33.3818 61.426 33.1459 61.6116 32.8207C61.7972 32.4955 61.8498 32.1077 61.7577 31.7426C61.6657 31.3776 61.4366 31.0651 61.1208 30.8739L56.9388 28.3446C56.6226 28.1536 56.2456 28.0997 55.8908 28.1949C55.536 28.29 55.2325 28.5264 55.047 28.852C54.8615 29.1776 54.8092 29.5658 54.9016 29.9311C54.994 30.2964 55.2236 30.609 55.5398 30.8L59.721 33.3261Z" fill="#051720"/>
<path id="Vector_8" d="M50.1568 56.0241L59.4283 83.4183C59.4936 83.6115 59.5987 83.7878 59.7363 83.9353C59.8739 84.0828 60.0408 84.1981 60.2256 84.2731C60.4104 84.3481 60.6087 84.3812 60.807 84.3702C61.0054 84.3591 61.1991 84.3041 61.3749 84.2089L72.548 78.1566C72.8418 77.9975 73.0701 77.7347 73.191 77.4164C73.312 77.0982 73.3177 76.7457 73.2069 76.4235L65.2855 53.3647C64.7614 51.8369 63.7091 50.5613 62.3296 49.7816L59.2989 48.0664C58.1625 47.4233 56.8635 47.1501 55.5733 47.2829C54.2831 47.4157 53.0623 47.9482 52.072 48.8102C51.0818 49.6721 50.3686 50.823 50.0267 52.1109C49.6847 53.3988 49.7301 54.7632 50.1568 56.0241ZM53.9601 50.8939C54.6019 50.3749 55.3944 50.0928 56.2105 50.0928H56.2294L62.8402 67.8695L61.7663 71.412C61.7121 71.5902 61.6926 71.7776 61.7089 71.9635C61.7252 72.1495 61.7769 72.3303 61.8611 72.4956C61.9453 72.661 62.0604 72.8076 62.1997 72.9271C62.3389 73.0467 62.4998 73.1367 62.6729 73.1922C62.8061 73.2356 62.945 73.2575 63.0848 73.2572C63.3789 73.2572 63.6654 73.1604 63.9023 72.9809C64.1392 72.8014 64.3142 72.5486 64.4017 72.2594L65.6192 68.2465C65.7122 67.9412 65.7022 67.6125 65.5908 67.3137L59.7305 51.5537L61.0009 52.2727C61.7861 52.7174 62.3851 53.4438 62.6839 54.3137L70.2069 76.2122L61.5098 80.9247L52.7662 55.0872C52.5156 54.3474 52.4959 53.5454 52.71 52.7934C52.9241 52.0415 53.3612 51.3773 53.9601 50.8939Z" fill="#051720"/>
<path id="Vector_9" d="M11.5977 27.3111C11.413 27.3111 11.2302 27.3492 11.0602 27.4231C10.8901 27.4971 10.7361 27.6054 10.6074 27.7418C10.549 27.8043 9.13578 29.3042 7.38643 31.5881C7.2741 31.7347 7.19092 31.9027 7.14163 32.0824C7.09234 32.2621 7.07791 32.45 7.09916 32.6355C7.12041 32.8209 7.17692 33.0003 7.26547 33.1632C7.35403 33.3262 7.47288 33.4696 7.61526 33.5853C7.9028 33.8188 8.26868 33.9252 8.63241 33.8811C8.99614 33.8369 9.32792 33.6457 9.55477 33.3496C10.3383 32.3267 11.054 31.463 11.5969 30.8358C13.9506 33.569 19.6855 40.7873 19.6855 46.2375C19.6855 48.4463 18.8334 50.5646 17.3167 52.1264C15.7999 53.6882 13.7427 54.5656 11.5977 54.5656C9.45261 54.5656 7.39543 53.6882 5.87865 52.1264C4.36188 50.5646 3.50977 48.4463 3.50977 46.2375C3.50977 44.1811 4.35091 41.6355 6.0103 38.6699C6.19321 38.3431 6.24255 37.9549 6.14747 37.5906C6.0524 37.2264 5.82069 36.9159 5.50333 36.7276C5.18597 36.5393 4.80895 36.4885 4.45521 36.5864C4.10147 36.6843 3.79998 36.9228 3.61708 37.2496C1.71386 40.6499 0.748047 43.6733 0.748047 46.2375C0.748047 47.7046 1.02868 49.1574 1.57392 50.5128C2.11917 51.8682 2.91834 53.0998 3.92582 54.1372C4.9333 55.1746 6.12936 55.9975 7.44569 56.559C8.76203 57.1204 10.1729 57.4094 11.5977 57.4094C13.0224 57.4094 14.4333 57.1204 15.7496 56.559C17.066 55.9975 18.262 55.1746 19.2695 54.1372C20.277 53.0998 21.0761 51.8682 21.6214 50.5128C22.1666 49.1574 22.4473 47.7046 22.4473 46.2375C22.4473 38.275 12.9904 28.1708 12.5879 27.745C12.4595 27.6081 12.3056 27.4992 12.1355 27.4246C11.9654 27.3501 11.7825 27.3115 11.5977 27.3111Z" fill="#051720"/>
</g>
</g>
</svg>
